<svg xmlns="http://www.w3.org/2000/svg" viewBox="0 0 800 400">
  <rect width="800" height="400" fill="white"/>
  <text x="400" y="38" text-anchor="middle" font-family="Arial" font-size="18" font-weight="bold" fill="#333">Clustering Overview</text>
  <!-- K-Means -->
  <text x="130" y="68" text-anchor="middle" font-family="Arial" font-size="12" font-weight="bold" fill="#333">K-Means</text>
  <circle cx="90" cy="130" r="5" fill="#4a90d9"/><circle cx="110" cy="120" r="5" fill="#4a90d9"/><circle cx="100" cy="145" r="5" fill="#4a90d9"/>
  <circle cx="80" cy="155" r="5" fill="#4a90d9"/>
  <circle cx="170" cy="180" r="5" fill="#e74c3c"/><circle cx="190" cy="165" r="5" fill="#e74c3c"/>
  <circle cx="185" cy="190" r="5" fill="#e74c3c"/><circle cx="165" cy="200" r="5" fill="#e74c3c"/>
  <circle cx="130" cy="240" r="5" fill="#27ae60"/><circle cx="150" cy="255" r="5" fill="#27ae60"/>
  <circle cx="115" cy="255" r="5" fill="#27ae60"/>
  <circle cx="95" cy="137" r="10" fill="none" stroke="#4a90d9" stroke-width="1.5" stroke-dasharray="4,2"/>
  <circle cx="180" cy="182" r="12" fill="none" stroke="#e74c3c" stroke-width="1.5" stroke-dasharray="4,2"/>
  <circle cx="132" cy="248" r="12" fill="none" stroke="#27ae60" stroke-width="1.5" stroke-dasharray="4,2"/>
  <!-- DBSCAN -->
  <text x="370" y="68" text-anchor="middle" font-family="Arial" font-size="12" font-weight="bold" fill="#333">DBSCAN</text>
  <circle cx="310" cy="130" r="5" fill="#4a90d9"/><circle cx="330" cy="120" r="5" fill="#4a90d9"/>
  <circle cx="320" cy="148" r="5" fill="#4a90d9"/><circle cx="305" cy="155" r="5" fill="#4a90d9"/>
  <circle cx="360" cy="185" r="5" fill="#e74c3c"/><circle cx="385" cy="175" r="5" fill="#e74c3c"/>
  <circle cx="375" cy="198" r="5" fill="#e74c3c"/>
  <circle cx="430" cy="250" r="5" fill="#888"/><text x="440" y="254" font-family="Arial" font-size="10" fill="#888">noise</text>
  <path d="M295,115 Q340,105 345,165 Q335,175 295,165 Z" fill="#4a90d9" fill-opacity="0.15" stroke="#4a90d9" stroke-width="1.5"/>
  <path d="M348,165 Q400,155 400,205 Q370,215 345,200 Z" fill="#e74c3c" fill-opacity="0.15" stroke="#e74c3c" stroke-width="1.5"/>
  <!-- Hierarchical dendrogram -->
  <text x="630" y="68" text-anchor="middle" font-family="Arial" font-size="12" font-weight="bold" fill="#333">Hierarchical</text>
  <line x1="560" y1="270" x2="560" y2="250" stroke="#555" stroke-width="2"/>
  <line x1="600" y1="270" x2="600" y2="250" stroke="#555" stroke-width="2"/>
  <line x1="560" y1="250" x2="600" y2="250" stroke="#555" stroke-width="2"/>
  <line x1="580" y1="250" x2="580" y2="200" stroke="#555" stroke-width="2"/>
  <line x1="650" y1="270" x2="650" y2="250" stroke="#555" stroke-width="2"/>
  <line x1="700" y1="270" x2="700" y2="250" stroke="#555" stroke-width="2"/>
  <line x1="650" y1="250" x2="700" y2="250" stroke="#555" stroke-width="2"/>
  <line x1="675" y1="250" x2="675" y2="200" stroke="#555" stroke-width="2"/>
  <line x1="580" y1="200" x2="675" y2="200" stroke="#555" stroke-width="2"/>
  <line x1="627" y1="200" x2="627" y2="150" stroke="#555" stroke-width="2"/>
  <circle cx="560" cy="275" r="5" fill="#4a90d9"/><circle cx="600" cy="275" r="5" fill="#4a90d9"/>
  <circle cx="650" cy="275" r="5" fill="#e74c3c"/><circle cx="700" cy="275" r="5" fill="#e74c3c"/>
</svg>
