<svg viewBox="0 0 800 400" xmlns="http://www.w3.org/2000/svg" font-family="Georgia,serif">
  <rect width="800" height="400" fill="#FDFAF4"/>

  <!-- Title -->
  <text x="400" y="34" text-anchor="middle" fill="#333" font-size="17" font-weight="bold">Evasion Attacks: Crossing the Decision Boundary</text>

  <!-- ===== LEFT PANEL: input space with epsilon-ball ===== -->
  <!-- Axes -->
  <line x1="60" y1="340" x2="340" y2="340" stroke="#888" stroke-width="1.5"/>
  <line x1="60" y1="340" x2="60" y2="80" stroke="#888" stroke-width="1.5"/>
  <text x="342" y="344" fill="#888" font-size="12">x₁</text>
  <text x="52" y="76" fill="#888" font-size="12">x₂</text>

  <!-- Decision boundary (curved line) -->
  <path d="M 70 270 Q 150 200 220 160 Q 280 130 340 100" stroke="#2C5F8A" stroke-width="2" fill="none" stroke-dasharray="6,3"/>
  <text x="262" y="118" fill="#2C5F8A" font-size="12" font-style="italic">decision boundary</text>

  <!-- Class labels -->
  <text x="90" y="310" fill="#4A7C59" font-size="13" font-weight="bold">Class A</text>
  <text x="240" y="100" fill="#C0392B" font-size="13" font-weight="bold">Class B</text>

  <!-- epsilon ball around original point -->
  <circle cx="155" cy="245" r="48" fill="none" stroke="#E07B39" stroke-width="1.5" stroke-dasharray="5,3"/>
  <text x="155" y="305" text-anchor="middle" fill="#E07B39" font-size="12">ε-ball</text>

  <!-- Original point -->
  <circle cx="155" cy="245" r="7" fill="#4A7C59" stroke="#fff" stroke-width="1.5"/>
  <text x="118" y="241" fill="#4A7C59" font-size="12" font-weight="bold">x (clean)</text>

  <!-- Adversarial point (just past the boundary) -->
  <circle cx="196" cy="208" r="7" fill="#C0392B" stroke="#fff" stroke-width="1.5"/>
  <text x="200" y="206" fill="#C0392B" font-size="12" font-weight="bold">x+δ (adv.)</text>

  <!-- Arrow from x to x+delta -->
  <defs>
    <marker id="arr1" markerWidth="8" markerHeight="6" refX="7" refY="3" orient="auto">
      <polygon points="0 0,8 3,0 6" fill="#E07B39"/>
    </marker>
  </defs>
  <line x1="161" y1="239" x2="190" y2="214" stroke="#E07B39" stroke-width="1.8" marker-end="url(#arr1)"/>
  <text x="162" y="218" fill="#E07B39" font-size="11" font-style="italic">δ = ε·sign(∇ₓL)</text>

  <!-- Panel label -->
  <text x="200" y="372" text-anchor="middle" fill="#555" font-size="12">Input space — imperceptible step crosses boundary</text>

  <!-- ===== DIVIDER ===== -->
  <line x1="380" y1="70" x2="380" y2="370" stroke="#ccc" stroke-width="1"/>

  <!-- ===== RIGHT PANEL: pixel-level view ===== -->
  <!-- Clean image grid label -->
  <text x="450" y="75" text-anchor="middle" fill="#333" font-size="13" font-weight="bold">Clean input</text>
  <text x="450" y="91" text-anchor="middle" fill="#4A7C59" font-size="11">predicted: "cat" ✓</text>

  <!-- Clean image: 5x5 pixel grid -->
  <rect x="405" y="100" width="90" height="90" rx="4" fill="#EAF4FB" stroke="#2C5F8A" stroke-width="1.5"/>
  <!-- row 1 -->
  <rect x="408" y="103" width="15" height="15" fill="#6AAED6" fill-opacity="0.6"/>
  <rect x="425" y="103" width="15" height="15" fill="#3A86B4" fill-opacity="0.8"/>
  <rect x="442" y="103" width="15" height="15" fill="#6AAED6" fill-opacity="0.5"/>
  <rect x="459" y="103" width="15" height="15" fill="#3A86B4" fill-opacity="0.7"/>
  <rect x="476" y="103" width="15" height="15" fill="#6AAED6" fill-opacity="0.4"/>
  <!-- row 2 -->
  <rect x="408" y="120" width="15" height="15" fill="#3A86B4" fill-opacity="0.7"/>
  <rect x="425" y="120" width="15" height="15" fill="#6AAED6" fill-opacity="0.9"/>
  <rect x="442" y="120" width="15" height="15" fill="#3A86B4" fill-opacity="0.6"/>
  <rect x="459" y="120" width="15" height="15" fill="#6AAED6" fill-opacity="0.8"/>
  <rect x="476" y="120" width="15" height="15" fill="#3A86B4" fill-opacity="0.5"/>
  <!-- row 3 -->
  <rect x="408" y="137" width="15" height="15" fill="#6AAED6" fill-opacity="0.5"/>
  <rect x="425" y="137" width="15" height="15" fill="#3A86B4" fill-opacity="0.7"/>
  <rect x="442" y="137" width="15" height="15" fill="#6AAED6" fill-opacity="0.9"/>
  <rect x="459" y="137" width="15" height="15" fill="#3A86B4" fill-opacity="0.8"/>
  <rect x="476" y="137" width="15" height="15" fill="#6AAED6" fill-opacity="0.6"/>
  <!-- row 4 -->
  <rect x="408" y="154" width="15" height="15" fill="#3A86B4" fill-opacity="0.8"/>
  <rect x="425" y="154" width="15" height="15" fill="#6AAED6" fill-opacity="0.6"/>
  <rect x="442" y="154" width="15" height="15" fill="#3A86B4" fill-opacity="0.4"/>
  <rect x="459" y="154" width="15" height="15" fill="#6AAED6" fill-opacity="0.7"/>
  <rect x="476" y="154" width="15" height="15" fill="#3A86B4" fill-opacity="0.9"/>
  <!-- row 5 -->
  <rect x="408" y="171" width="15" height="15" fill="#6AAED6" fill-opacity="0.7"/>
  <rect x="425" y="171" width="15" height="15" fill="#3A86B4" fill-opacity="0.5"/>
  <rect x="442" y="171" width="15" height="15" fill="#6AAED6" fill-opacity="0.8"/>
  <rect x="459" y="171" width="15" height="15" fill="#3A86B4" fill-opacity="0.6"/>
  <rect x="476" y="171" width="15" height="15" fill="#6AAED6" fill-opacity="0.4"/>

  <!-- Plus sign -->
  <text x="510" y="150" text-anchor="middle" fill="#333" font-size="26" font-weight="bold">+</text>

  <!-- Perturbation grid label -->
  <text x="570" y="75" text-anchor="middle" fill="#E07B39" font-size="13" font-weight="bold">Perturbation δ</text>
  <text x="570" y="91" text-anchor="middle" fill="#E07B39" font-size="11">‖δ‖∞ ≤ ε</text>

  <!-- Perturbation: 5x5 noise grid -->
  <rect x="525" y="100" width="90" height="90" rx="4" fill="#FFF8F0" stroke="#E07B39" stroke-width="1.5"/>
  <rect x="528" y="103" width="15" height="15" fill="#E07B39" fill-opacity="0.5"/>
  <rect x="545" y="103" width="15" height="15" fill="#E07B39" fill-opacity="0.2"/>
  <rect x="562" y="103" width="15" height="15" fill="#E07B39" fill-opacity="0.6"/>
  <rect x="579" y="103" width="15" height="15" fill="#E07B39" fill-opacity="0.3"/>
  <rect x="596" y="103" width="15" height="15" fill="#E07B39" fill-opacity="0.7"/>
  <rect x="528" y="120" width="15" height="15" fill="#E07B39" fill-opacity="0.3"/>
  <rect x="545" y="120" width="15" height="15" fill="#E07B39" fill-opacity="0.6"/>
  <rect x="562" y="120" width="15" height="15" fill="#E07B39" fill-opacity="0.1"/>
  <rect x="579" y="120" width="15" height="15" fill="#E07B39" fill-opacity="0.5"/>
  <rect x="596" y="120" width="15" height="15" fill="#E07B39" fill-opacity="0.4"/>
  <rect x="528" y="137" width="15" height="15" fill="#E07B39" fill-opacity="0.7"/>
  <rect x="545" y="137" width="15" height="15" fill="#E07B39" fill-opacity="0.2"/>
  <rect x="562" y="137" width="15" height="15" fill="#E07B39" fill-opacity="0.5"/>
  <rect x="579" y="137" width="15" height="15" fill="#E07B39" fill-opacity="0.3"/>
  <rect x="596" y="137" width="15" height="15" fill="#E07B39" fill-opacity="0.6"/>
  <rect x="528" y="154" width="15" height="15" fill="#E07B39" fill-opacity="0.4"/>
  <rect x="545" y="154" width="15" height="15" fill="#E07B39" fill-opacity="0.7"/>
  <rect x="562" y="154" width="15" height="15" fill="#E07B39" fill-opacity="0.3"/>
  <rect x="579" y="154" width="15" height="15" fill="#E07B39" fill-opacity="0.6"/>
  <rect x="596" y="154" width="15" height="15" fill="#E07B39" fill-opacity="0.2"/>
  <rect x="528" y="171" width="15" height="15" fill="#E07B39" fill-opacity="0.6"/>
  <rect x="545" y="171" width="15" height="15" fill="#E07B39" fill-opacity="0.4"/>
  <rect x="562" y="171" width="15" height="15" fill="#E07B39" fill-opacity="0.7"/>
  <rect x="579" y="171" width="15" height="15" fill="#E07B39" fill-opacity="0.2"/>
  <rect x="596" y="171" width="15" height="15" fill="#E07B39" fill-opacity="0.5"/>

  <!-- Equals sign -->
  <text x="635" y="150" text-anchor="middle" fill="#333" font-size="26" font-weight="bold">=</text>

  <!-- Adversarial image grid label -->
  <text x="718" y="75" text-anchor="middle" fill="#C0392B" font-size="13" font-weight="bold">Adversarial</text>
  <text x="718" y="91" text-anchor="middle" fill="#C0392B" font-size="11">predicted: "dog" ✗</text>

  <!-- Adversarial image: same pixel grid, looks identical -->
  <rect x="673" y="100" width="90" height="90" rx="4" fill="#EAF4FB" stroke="#C0392B" stroke-width="1.5"/>
  <rect x="676" y="103" width="15" height="15" fill="#6AAED6" fill-opacity="0.65"/>
  <rect x="693" y="103" width="15" height="15" fill="#3A86B4" fill-opacity="0.85"/>
  <rect x="710" y="103" width="15" height="15" fill="#6AAED6" fill-opacity="0.55"/>
  <rect x="727" y="103" width="15" height="15" fill="#3A86B4" fill-opacity="0.75"/>
  <rect x="744" y="103" width="15" height="15" fill="#6AAED6" fill-opacity="0.45"/>
  <rect x="676" y="120" width="15" height="15" fill="#3A86B4" fill-opacity="0.75"/>
  <rect x="693" y="120" width="15" height="15" fill="#6AAED6" fill-opacity="0.95"/>
  <rect x="710" y="120" width="15" height="15" fill="#3A86B4" fill-opacity="0.65"/>
  <rect x="727" y="120" width="15" height="15" fill="#6AAED6" fill-opacity="0.85"/>
  <rect x="744" y="120" width="15" height="15" fill="#3A86B4" fill-opacity="0.55"/>
  <rect x="676" y="137" width="15" height="15" fill="#6AAED6" fill-opacity="0.55"/>
  <rect x="693" y="137" width="15" height="15" fill="#3A86B4" fill-opacity="0.75"/>
  <rect x="710" y="137" width="15" height="15" fill="#6AAED6" fill-opacity="0.95"/>
  <rect x="727" y="137" width="15" height="15" fill="#3A86B4" fill-opacity="0.85"/>
  <rect x="744" y="137" width="15" height="15" fill="#6AAED6" fill-opacity="0.65"/>
  <rect x="676" y="154" width="15" height="15" fill="#3A86B4" fill-opacity="0.85"/>
  <rect x="693" y="154" width="15" height="15" fill="#6AAED6" fill-opacity="0.65"/>
  <rect x="710" y="154" width="15" height="15" fill="#3A86B4" fill-opacity="0.45"/>
  <rect x="727" y="154" width="15" height="15" fill="#6AAED6" fill-opacity="0.75"/>
  <rect x="744" y="154" width="15" height="15" fill="#3A86B4" fill-opacity="0.95"/>
  <rect x="676" y="171" width="15" height="15" fill="#6AAED6" fill-opacity="0.75"/>
  <rect x="693" y="171" width="15" height="15" fill="#3A86B4" fill-opacity="0.55"/>
  <rect x="710" y="171" width="15" height="15" fill="#6AAED6" fill-opacity="0.85"/>
  <rect x="727" y="171" width="15" height="15" fill="#3A86B4" fill-opacity="0.65"/>
  <rect x="744" y="171" width="15" height="15" fill="#6AAED6" fill-opacity="0.45"/>

  <!-- Bottom annotations right panel -->
  <text x="450" y="215" text-anchor="middle" fill="#555" font-size="11">looks identical</text>
  <text x="450" y="229" text-anchor="middle" fill="#555" font-size="11">to humans</text>
  <text x="718" y="215" text-anchor="middle" fill="#C0392B" font-size="11">model is</text>
  <text x="718" y="229" text-anchor="middle" fill="#C0392B" font-size="11">completely fooled</text>

  <!-- FGSM formula box -->
  <rect x="415" y="255" width="345" height="54" rx="6" fill="#FFF8F0" stroke="#E07B39" stroke-width="1.2"/>
  <text x="588" y="276" text-anchor="middle" fill="#E07B39" font-size="13" font-weight="bold">x_adv = x + ε · sign(∇ₓ L(f(x), y))</text>
  <text x="588" y="296" text-anchor="middle" fill="#888" font-size="11">ε = perturbation budget    L = classification loss    ∇ₓ = gradient w.r.t. input</text>

  <!-- Humans perception note -->
  <text x="588" y="332" text-anchor="middle" fill="#888" font-size="11" font-style="italic">‖x_adv − x‖∞ ≤ ε  (imperceptible)   →   model flips class with high confidence</text>

  <!-- Bottom full-width note -->
  <text x="400" y="372" text-anchor="middle" fill="#555" font-size="12">Left: the ε-ball in input space — the adversarial point crosses the decision boundary while staying inside the ball</text>
</svg>
