<?xml version="1.0" encoding="UTF-8"?>
<svg xmlns="http://www.w3.org/2000/svg" viewBox="0 0 800 400" style="font-family:Georgia,serif;">
  <defs>
    <marker id="arr" markerWidth="7" markerHeight="5" refX="6" refY="2.5" orient="auto">
      <polygon points="0 0, 7 2.5, 0 5" fill="#888"/>
    </marker>
    <marker id="arr-red" markerWidth="7" markerHeight="5" refX="6" refY="2.5" orient="auto">
      <polygon points="0 0, 7 2.5, 0 5" fill="#B03A2E"/>
    </marker>
    <marker id="arr-blue" markerWidth="7" markerHeight="5" refX="6" refY="2.5" orient="auto">
      <polygon points="0 0, 7 2.5, 0 5" fill="#2471A3"/>
    </marker>
    <marker id="arr-grn" markerWidth="7" markerHeight="5" refX="6" refY="2.5" orient="auto">
      <polygon points="0 0, 7 2.5, 0 5" fill="#1E8449"/>
    </marker>
  </defs>

  <!-- Background -->
  <rect width="800" height="400" fill="#FDFAF4" rx="6"/>

  <!-- Panel separators -->
  <line x1="200" y1="30" x2="200" y2="370" stroke="#D4C5A9" stroke-width="1" stroke-dasharray="4,3"/>
  <line x1="400" y1="30" x2="400" y2="370" stroke="#D4C5A9" stroke-width="1" stroke-dasharray="4,3"/>
  <line x1="600" y1="30" x2="600" y2="370" stroke="#D4C5A9" stroke-width="1" stroke-dasharray="4,3"/>

  <!-- ─── PANEL HEADERS ─── -->
  <rect x="2"   y="2" width="196" height="22" fill="#EDE6D6" rx="4"/>
  <rect x="202" y="2" width="196" height="22" fill="#EDE6D6" rx="4"/>
  <rect x="402" y="2" width="196" height="22" fill="#EDE6D6" rx="4"/>
  <rect x="602" y="2" width="196" height="22" fill="#EDE6D6" rx="4"/>

  <text x="100" y="16" text-anchor="middle" font-size="10" fill="#5C3D1E" letter-spacing="0.8" font-weight="bold">① RANDOM INIT</text>
  <text x="300" y="16" text-anchor="middle" font-size="10" fill="#5C3D1E" letter-spacing="0.8" font-weight="bold">② ASSIGN</text>
  <text x="500" y="16" text-anchor="middle" font-size="10" fill="#5C3D1E" letter-spacing="0.8" font-weight="bold">③ UPDATE</text>
  <text x="700" y="16" text-anchor="middle" font-size="10" fill="#5C3D1E" letter-spacing="0.8" font-weight="bold">④ CONVERGED</text>

  <!-- ══════════════════════════════════════════════
       DATA POINTS — same layout, shifted per panel
       Red cluster: upper-right    ~(130,80) local
       Blue cluster: lower-left    ~(35,190) local
       Green cluster: middle-right ~(120,190) local
  ══════════════════════════════════════════════ -->

  <!-- ─── PANEL 1: RANDOM INIT — all points gray (unassigned) ─── -->
  <!-- Red cluster region points -->
  <circle cx="128" cy="68"  r="5.5" fill="#999" stroke="#777" stroke-width="0.8"/>
  <circle cx="152" cy="58"  r="5.5" fill="#999" stroke="#777" stroke-width="0.8"/>
  <circle cx="168" cy="80"  r="5.5" fill="#999" stroke="#777" stroke-width="0.8"/>
  <circle cx="140" cy="92"  r="5.5" fill="#999" stroke="#777" stroke-width="0.8"/>
  <circle cx="162" cy="100" r="5.5" fill="#999" stroke="#777" stroke-width="0.8"/>
  <circle cx="178" cy="64"  r="5.5" fill="#999" stroke="#777" stroke-width="0.8"/>
  <!-- Blue cluster region points -->
  <circle cx="30"  cy="195" r="5.5" fill="#999" stroke="#777" stroke-width="0.8"/>
  <circle cx="50"  cy="215" r="5.5" fill="#999" stroke="#777" stroke-width="0.8"/>
  <circle cx="42"  cy="175" r="5.5" fill="#999" stroke="#777" stroke-width="0.8"/>
  <circle cx="68"  cy="228" r="5.5" fill="#999" stroke="#777" stroke-width="0.8"/>
  <circle cx="28"  cy="238" r="5.5" fill="#999" stroke="#777" stroke-width="0.8"/>
  <circle cx="62"  cy="182" r="5.5" fill="#999" stroke="#777" stroke-width="0.8"/>
  <!-- Green cluster region points -->
  <circle cx="118" cy="188" r="5.5" fill="#999" stroke="#777" stroke-width="0.8"/>
  <circle cx="142" cy="202" r="5.5" fill="#999" stroke="#777" stroke-width="0.8"/>
  <circle cx="132" cy="168" r="5.5" fill="#999" stroke="#777" stroke-width="0.8"/>
  <circle cx="158" cy="194" r="5.5" fill="#999" stroke="#777" stroke-width="0.8"/>
  <circle cx="124" cy="218" r="5.5" fill="#999" stroke="#777" stroke-width="0.8"/>
  <circle cx="104" cy="176" r="5.5" fill="#999" stroke="#777" stroke-width="0.8"/>

  <!-- Random centroids — placed far from true cluster centers -->
  <!-- Red centroid: placed lower-center (bad init) -->
  <line x1="83"  y1="124" x2="95"  y2="136" stroke="#B03A2E" stroke-width="3.2" stroke-linecap="round"/>
  <line x1="95"  y1="124" x2="83"  y2="136" stroke="#B03A2E" stroke-width="3.2" stroke-linecap="round"/>
  <!-- Blue centroid: placed upper area (bad init) -->
  <line x1="68"  y1="49"  x2="80"  y2="61"  stroke="#2471A3" stroke-width="3.2" stroke-linecap="round"/>
  <line x1="80"  y1="49"  x2="68"  y2="61"  stroke="#2471A3" stroke-width="3.2" stroke-linecap="round"/>
  <!-- Green centroid: placed center-left (bad init) -->
  <line x1="48"  y1="148" x2="60"  y2="160" stroke="#1E8449" stroke-width="3.2" stroke-linecap="round"/>
  <line x1="60"  y1="148" x2="48"  y2="160" stroke="#1E8449" stroke-width="3.2" stroke-linecap="round"/>

  <!-- Legend: X = centroid -->
  <line x1="14" y1="349" x2="22" y2="357" stroke="#555" stroke-width="2" stroke-linecap="round"/>
  <line x1="22" y1="349" x2="14" y2="357" stroke="#555" stroke-width="2" stroke-linecap="round"/>
  <text x="27" y="356" font-size="9" fill="#5C3D1E">= centroid</text>
  <circle cx="88" cy="353" r="5" fill="#999" stroke="#777" stroke-width="0.8"/>
  <text x="96" y="357" font-size="9" fill="#5C3D1E">= data point</text>

  <text x="100" y="372" text-anchor="middle" font-size="8.5" fill="#888" font-style="italic">3 centroids placed randomly</text>

  <!-- ─── PANEL 2: ASSIGN — points colored by nearest centroid ─── -->
  <!-- offset +200 -->
  <!-- Red cluster points (correctly assigned) -->
  <circle cx="328" cy="68"  r="5.5" fill="#E8A89C" stroke="#B03A2E" stroke-width="1.2"/>
  <circle cx="352" cy="58"  r="5.5" fill="#E8A89C" stroke="#B03A2E" stroke-width="1.2"/>
  <circle cx="368" cy="80"  r="5.5" fill="#E8A89C" stroke="#B03A2E" stroke-width="1.2"/>
  <circle cx="340" cy="92"  r="5.5" fill="#E8A89C" stroke="#B03A2E" stroke-width="1.2"/>
  <circle cx="362" cy="100" r="5.5" fill="#E8A89C" stroke="#B03A2E" stroke-width="1.2"/>
  <circle cx="378" cy="64"  r="5.5" fill="#E8A89C" stroke="#B03A2E" stroke-width="1.2"/>
  <!-- Blue cluster points -->
  <circle cx="230" cy="195" r="5.5" fill="#A9C4E0" stroke="#2471A3" stroke-width="1.2"/>
  <circle cx="250" cy="215" r="5.5" fill="#A9C4E0" stroke="#2471A3" stroke-width="1.2"/>
  <circle cx="242" cy="175" r="5.5" fill="#A9C4E0" stroke="#2471A3" stroke-width="1.2"/>
  <circle cx="268" cy="228" r="5.5" fill="#A9C4E0" stroke="#2471A3" stroke-width="1.2"/>
  <circle cx="228" cy="238" r="5.5" fill="#A9C4E0" stroke="#2471A3" stroke-width="1.2"/>
  <circle cx="262" cy="182" r="5.5" fill="#A9C4E0" stroke="#2471A3" stroke-width="1.2"/>
  <!-- Green cluster points -->
  <circle cx="318" cy="188" r="5.5" fill="#A9D4B8" stroke="#1E8449" stroke-width="1.2"/>
  <circle cx="342" cy="202" r="5.5" fill="#A9D4B8" stroke="#1E8449" stroke-width="1.2"/>
  <circle cx="332" cy="168" r="5.5" fill="#A9D4B8" stroke="#1E8449" stroke-width="1.2"/>
  <circle cx="358" cy="194" r="5.5" fill="#A9D4B8" stroke="#1E8449" stroke-width="1.2"/>
  <circle cx="324" cy="218" r="5.5" fill="#A9D4B8" stroke="#1E8449" stroke-width="1.2"/>
  <circle cx="304" cy="176" r="5.5" fill="#A9D4B8" stroke="#1E8449" stroke-width="1.2"/>

  <!-- Centroid positions (same random positions as panel 1, shifted +200) -->
  <line x1="283" y1="124" x2="295" y2="136" stroke="#B03A2E" stroke-width="3.2" stroke-linecap="round"/>
  <line x1="295" y1="124" x2="283" y2="136" stroke="#B03A2E" stroke-width="3.2" stroke-linecap="round"/>
  <line x1="268" y1="49"  x2="280" y2="61"  stroke="#2471A3" stroke-width="3.2" stroke-linecap="round"/>
  <line x1="280" y1="49"  x2="268" y2="61"  stroke="#2471A3" stroke-width="3.2" stroke-linecap="round"/>
  <line x1="248" y1="148" x2="260" y2="160" stroke="#1E8449" stroke-width="3.2" stroke-linecap="round"/>
  <line x1="260" y1="148" x2="248" y2="160" stroke="#1E8449" stroke-width="3.2" stroke-linecap="round"/>

  <!-- Thin assignment lines (sample, not all) -->
  <line x1="328" cy="68"  x2="289" y1="68"  y2="130" stroke="#B03A2E" stroke-width="0.6" opacity="0.35"/>
  <line x1="362" cy="100" x2="289" y1="100" y2="130" stroke="#B03A2E" stroke-width="0.6" opacity="0.35"/>
  <line x1="230" cy="195" x2="254" y1="195" y2="154" stroke="#1E8449" stroke-width="0.6" opacity="0.35"/>
  <line x1="268" cy="228" x2="274" y1="228" y2="164" stroke="#2471A3" stroke-width="0.6" opacity="0.35"/>

  <text x="300" y="372" text-anchor="middle" font-size="8.5" fill="#888" font-style="italic">each point → nearest centroid</text>

  <!-- ─── PANEL 3: UPDATE — centroids move to cluster means ─── -->
  <!-- offset +400 -->
  <!-- Red cluster points -->
  <circle cx="528" cy="68"  r="5.5" fill="#E8A89C" stroke="#B03A2E" stroke-width="1.2"/>
  <circle cx="552" cy="58"  r="5.5" fill="#E8A89C" stroke="#B03A2E" stroke-width="1.2"/>
  <circle cx="568" cy="80"  r="5.5" fill="#E8A89C" stroke="#B03A2E" stroke-width="1.2"/>
  <circle cx="540" cy="92"  r="5.5" fill="#E8A89C" stroke="#B03A2E" stroke-width="1.2"/>
  <circle cx="562" cy="100" r="5.5" fill="#E8A89C" stroke="#B03A2E" stroke-width="1.2"/>
  <circle cx="578" cy="64"  r="5.5" fill="#E8A89C" stroke="#B03A2E" stroke-width="1.2"/>
  <!-- Blue cluster points -->
  <circle cx="430" cy="195" r="5.5" fill="#A9C4E0" stroke="#2471A3" stroke-width="1.2"/>
  <circle cx="450" cy="215" r="5.5" fill="#A9C4E0" stroke="#2471A3" stroke-width="1.2"/>
  <circle cx="442" cy="175" r="5.5" fill="#A9C4E0" stroke="#2471A3" stroke-width="1.2"/>
  <circle cx="468" cy="228" r="5.5" fill="#A9C4E0" stroke="#2471A3" stroke-width="1.2"/>
  <circle cx="428" cy="238" r="5.5" fill="#A9C4E0" stroke="#2471A3" stroke-width="1.2"/>
  <circle cx="462" cy="182" r="5.5" fill="#A9C4E0" stroke="#2471A3" stroke-width="1.2"/>
  <!-- Green cluster points -->
  <circle cx="518" cy="188" r="5.5" fill="#A9D4B8" stroke="#1E8449" stroke-width="1.2"/>
  <circle cx="542" cy="202" r="5.5" fill="#A9D4B8" stroke="#1E8449" stroke-width="1.2"/>
  <circle cx="532" cy="168" r="5.5" fill="#A9D4B8" stroke="#1E8449" stroke-width="1.2"/>
  <circle cx="558" cy="194" r="5.5" fill="#A9D4B8" stroke="#1E8449" stroke-width="1.2"/>
  <circle cx="524" cy="218" r="5.5" fill="#A9D4B8" stroke="#1E8449" stroke-width="1.2"/>
  <circle cx="504" cy="176" r="5.5" fill="#A9D4B8" stroke="#1E8449" stroke-width="1.2"/>

  <!-- Old centroid positions (faded) -->
  <line x1="483" y1="124" x2="495" y2="136" stroke="#B03A2E" stroke-width="1.5" stroke-linecap="round" opacity="0.25"/>
  <line x1="495" y1="124" x2="483" y2="136" stroke="#B03A2E" stroke-width="1.5" stroke-linecap="round" opacity="0.25"/>
  <line x1="468" y1="49"  x2="480" y2="61"  stroke="#2471A3" stroke-width="1.5" stroke-linecap="round" opacity="0.25"/>
  <line x1="480" y1="49"  x2="468" y2="61"  stroke="#2471A3" stroke-width="1.5" stroke-linecap="round" opacity="0.25"/>
  <line x1="448" y1="148" x2="460" y2="160" stroke="#1E8449" stroke-width="1.5" stroke-linecap="round" opacity="0.25"/>
  <line x1="460" y1="148" x2="448" y2="160" stroke="#1E8449" stroke-width="1.5" stroke-linecap="round" opacity="0.25"/>

  <!-- Arrows: old centroid → new centroid (true mean) -->
  <!-- Red: old (489,130) → new mean of red pts ≈ (555,77) -->
  <line x1="489" y1="130" x2="551" y2="82" stroke="#B03A2E" stroke-width="1.4" stroke-dasharray="4,2" marker-end="url(#arr-red)" opacity="0.8"/>
  <!-- Blue: old (474,55) → new mean of blue pts ≈ (447,206) -->
  <line x1="474" y1="55"  x2="449" y2="198" stroke="#2471A3" stroke-width="1.4" stroke-dasharray="4,2" marker-end="url(#arr-blue)" opacity="0.8"/>
  <!-- Green: old (454,154) → new mean of green pts ≈ (530,191) -->
  <line x1="454" y1="154" x2="524" y2="186" stroke="#1E8449" stroke-width="1.4" stroke-dasharray="4,2" marker-end="url(#arr-grn)" opacity="0.8"/>

  <!-- New centroid positions (bold X at true cluster means) -->
  <!-- Red centroid at ~(555, 77) -->
  <line x1="549" y1="71"  x2="561" y2="83"  stroke="#B03A2E" stroke-width="3.2" stroke-linecap="round"/>
  <line x1="561" y1="71"  x2="549" y2="83"  stroke="#B03A2E" stroke-width="3.2" stroke-linecap="round"/>
  <!-- Blue centroid at ~(447, 206) -->
  <line x1="441" y1="200" x2="453" y2="212" stroke="#2471A3" stroke-width="3.2" stroke-linecap="round"/>
  <line x1="453" y1="200" x2="441" y2="212" stroke="#2471A3" stroke-width="3.2" stroke-linecap="round"/>
  <!-- Green centroid at ~(530, 191) -->
  <line x1="524" y1="185" x2="536" y2="197" stroke="#1E8449" stroke-width="3.2" stroke-linecap="round"/>
  <line x1="536" y1="185" x2="524" y2="197" stroke="#1E8449" stroke-width="3.2" stroke-linecap="round"/>

  <!-- "moved" label -->
  <text x="500" y="372" text-anchor="middle" font-size="8.5" fill="#888" font-style="italic">centroids shift to cluster means</text>

  <!-- ─── PANEL 4: CONVERGED — tight clusters, centroids at true means ─── -->
  <!-- offset +600 -->
  <!-- Red cluster points -->
  <circle cx="728" cy="68"  r="5.5" fill="#E8A89C" stroke="#B03A2E" stroke-width="1.2"/>
  <circle cx="752" cy="58"  r="5.5" fill="#E8A89C" stroke="#B03A2E" stroke-width="1.2"/>
  <circle cx="768" cy="80"  r="5.5" fill="#E8A89C" stroke="#B03A2E" stroke-width="1.2"/>
  <circle cx="740" cy="92"  r="5.5" fill="#E8A89C" stroke="#B03A2E" stroke-width="1.2"/>
  <circle cx="762" cy="100" r="5.5" fill="#E8A89C" stroke="#B03A2E" stroke-width="1.2"/>
  <circle cx="778" cy="64"  r="5.5" fill="#E8A89C" stroke="#B03A2E" stroke-width="1.2"/>
  <!-- Blue cluster points -->
  <circle cx="630" cy="195" r="5.5" fill="#A9C4E0" stroke="#2471A3" stroke-width="1.2"/>
  <circle cx="650" cy="215" r="5.5" fill="#A9C4E0" stroke="#2471A3" stroke-width="1.2"/>
  <circle cx="642" cy="175" r="5.5" fill="#A9C4E0" stroke="#2471A3" stroke-width="1.2"/>
  <circle cx="668" cy="228" r="5.5" fill="#A9C4E0" stroke="#2471A3" stroke-width="1.2"/>
  <circle cx="628" cy="238" r="5.5" fill="#A9C4E0" stroke="#2471A3" stroke-width="1.2"/>
  <circle cx="662" cy="182" r="5.5" fill="#A9C4E0" stroke="#2471A3" stroke-width="1.2"/>
  <!-- Green cluster points -->
  <circle cx="718" cy="188" r="5.5" fill="#A9D4B8" stroke="#1E8449" stroke-width="1.2"/>
  <circle cx="742" cy="202" r="5.5" fill="#A9D4B8" stroke="#1E8449" stroke-width="1.2"/>
  <circle cx="732" cy="168" r="5.5" fill="#A9D4B8" stroke="#1E8449" stroke-width="1.2"/>
  <circle cx="758" cy="194" r="5.5" fill="#A9D4B8" stroke="#1E8449" stroke-width="1.2"/>
  <circle cx="724" cy="218" r="5.5" fill="#A9D4B8" stroke="#1E8449" stroke-width="1.2"/>
  <circle cx="704" cy="176" r="5.5" fill="#A9D4B8" stroke="#1E8449" stroke-width="1.2"/>

  <!-- Final centroids at true means — bold X, circled -->
  <!-- Red centroid ~(755, 77) -->
  <circle cx="755" cy="77"  r="14" fill="none" stroke="#B03A2E" stroke-width="1.2" stroke-dasharray="3,2" opacity="0.5"/>
  <line x1="749" y1="71"  x2="761" y2="83"  stroke="#B03A2E" stroke-width="3.2" stroke-linecap="round"/>
  <line x1="761" y1="71"  x2="749" y2="83"  stroke="#B03A2E" stroke-width="3.2" stroke-linecap="round"/>
  <!-- Blue centroid ~(647, 206) -->
  <circle cx="647" cy="206" r="14" fill="none" stroke="#2471A3" stroke-width="1.2" stroke-dasharray="3,2" opacity="0.5"/>
  <line x1="641" y1="200" x2="653" y2="212" stroke="#2471A3" stroke-width="3.2" stroke-linecap="round"/>
  <line x1="653" y1="200" x2="641" y2="212" stroke="#2471A3" stroke-width="3.2" stroke-linecap="round"/>
  <!-- Green centroid ~(730, 191) -->
  <circle cx="730" cy="191" r="14" fill="none" stroke="#1E8449" stroke-width="1.2" stroke-dasharray="3,2" opacity="0.5"/>
  <line x1="724" y1="185" x2="736" y2="197" stroke="#1E8449" stroke-width="3.2" stroke-linecap="round"/>
  <line x1="736" y1="185" x2="724" y2="197" stroke="#1E8449" stroke-width="3.2" stroke-linecap="round"/>

  <!-- Converged checkmark badge -->
  <rect x="618" y="290" width="164" height="22" rx="4" fill="#D5E8D4" stroke="#1E8449" stroke-width="1"/>
  <text x="700" y="305" text-anchor="middle" font-size="9.5" fill="#1E5C2A" font-weight="bold">✓ Converged — no reassignments</text>

  <text x="700" y="372" text-anchor="middle" font-size="8.5" fill="#888" font-style="italic">assignments stable, iteration stops</text>

  <!-- ─── BOTTOM CAPTION ─── -->
  <text x="400" y="390" text-anchor="middle" font-size="9" fill="#6B5D4F">
    K-means alternates assign and update steps until centroids no longer move — minimizing within-cluster sum of squares
  </text>
</svg>
