<svg viewBox="0 0 800 400" xmlns="http://www.w3.org/2000/svg" font-family="Georgia,serif">
  <rect width="800" height="400" fill="#FDFAF4"/>

  <!-- Title -->
  <text x="400" y="36" text-anchor="middle" fill="#333" font-size="18" font-weight="bold">Outer Product: u ⊗ v = uvᵀ</text>

  <!-- ===== Column vector u (left) ===== -->
  <!-- Bracket lines -->
  <line x1="58" y1="68" x2="52" y2="68" stroke="#2C5F8A" stroke-width="2"/>
  <line x1="52" y1="68" x2="52" y2="272" stroke="#2C5F8A" stroke-width="2"/>
  <line x1="52" y1="272" x2="58" y2="272" stroke="#2C5F8A" stroke-width="2"/>
  <line x1="118" y1="68" x2="124" y2="68" stroke="#2C5F8A" stroke-width="2"/>
  <line x1="124" y1="68" x2="124" y2="272" stroke="#2C5F8A" stroke-width="2"/>
  <line x1="124" y1="272" x2="118" y2="272" stroke="#2C5F8A" stroke-width="2"/>

  <!-- u cells -->
  <rect x="58" y="68" width="60" height="48" rx="4" fill="#2C5F8A" fill-opacity="0.12" stroke="#2C5F8A" stroke-width="1.5"/>
  <text x="88" y="99" text-anchor="middle" fill="#2C5F8A" font-size="15">u₁</text>

  <rect x="58" y="120" width="60" height="48" rx="4" fill="#2C5F8A" fill-opacity="0.12" stroke="#2C5F8A" stroke-width="1.5"/>
  <text x="88" y="151" text-anchor="middle" fill="#2C5F8A" font-size="15">u₂</text>

  <rect x="58" y="172" width="60" height="48" rx="4" fill="#2C5F8A" fill-opacity="0.12" stroke="#2C5F8A" stroke-width="1.5"/>
  <text x="88" y="203" text-anchor="middle" fill="#2C5F8A" font-size="15">u₃</text>

  <rect x="58" y="224" width="60" height="48" rx="4" fill="#2C5F8A" fill-opacity="0.12" stroke="#2C5F8A" stroke-width="1.5"/>
  <text x="88" y="255" text-anchor="middle" fill="#2C5F8A" font-size="15">u₄</text>

  <!-- u label -->
  <text x="88" y="308" text-anchor="middle" fill="#2C5F8A" font-size="14" font-weight="bold">u</text>
  <text x="88" y="326" text-anchor="middle" fill="#555" font-size="11">(4×1)</text>

  <!-- ===== Row vector v (top) ===== -->
  <!-- Bracket lines -->
  <line x1="198" y1="52" x2="198" y2="46" stroke="#4A7C59" stroke-width="2"/>
  <line x1="198" y1="46" x2="586" y2="46" stroke="#4A7C59" stroke-width="2"/>
  <line x1="586" y1="46" x2="586" y2="52" stroke="#4A7C59" stroke-width="2"/>
  <line x1="198" y1="68" x2="198" y2="62" stroke="#4A7C59" stroke-width="2"/>
  <line x1="198" y1="62" x2="586" y2="62" stroke="#4A7C59" stroke-width="2"/>
  <line x1="586" y1="62" x2="586" y2="68" stroke="#4A7C59" stroke-width="2"/>

  <!-- v cells -->
  <rect x="198" y="52" width="88" height="16" rx="3" fill="#4A7C59" fill-opacity="0.12" stroke="#4A7C59" stroke-width="1.5"/>
  <text x="242" y="64" text-anchor="middle" fill="#4A7C59" font-size="12">v₁</text>

  <rect x="294" y="52" width="88" height="16" rx="3" fill="#4A7C59" fill-opacity="0.12" stroke="#4A7C59" stroke-width="1.5"/>
  <text x="338" y="64" text-anchor="middle" fill="#4A7C59" font-size="12">v₂</text>

  <rect x="390" y="52" width="88" height="16" rx="3" fill="#4A7C59" fill-opacity="0.12" stroke="#4A7C59" stroke-width="1.5"/>
  <text x="434" y="64" text-anchor="middle" fill="#4A7C59" font-size="12">v₃</text>

  <rect x="486" y="52" width="100" height="16" rx="3" fill="#4A7C59" fill-opacity="0.12" stroke="#4A7C59" stroke-width="1.5"/>
  <text x="536" y="64" text-anchor="middle" fill="#4A7C59" font-size="12">v₄</text>

  <!-- vᵀ label -->
  <text x="392" y="33" text-anchor="middle" fill="#4A7C59" font-size="14" font-weight="bold">vᵀ</text>
  <text x="680" y="58" text-anchor="start" fill="#4A7C59" font-size="11">(1×4)</text>

  <!-- ===== Result matrix (4×4) ===== -->
  <!-- Row 1 -->
  <rect x="198" y="68" width="88" height="48" rx="4" fill="#E07B39" fill-opacity="0.18" stroke="#E07B39" stroke-width="1.5"/>
  <text x="242" y="94" text-anchor="middle" fill="#C05A20" font-size="12">u₁·v₁</text>

  <rect x="294" y="68" width="88" height="48" rx="4" fill="#E07B39" fill-opacity="0.10" stroke="#E07B39" stroke-width="1.2"/>
  <text x="338" y="94" text-anchor="middle" fill="#C05A20" font-size="12">u₁·v₂</text>

  <rect x="390" y="68" width="88" height="48" rx="4" fill="#E07B39" fill-opacity="0.10" stroke="#E07B39" stroke-width="1.2"/>
  <text x="434" y="94" text-anchor="middle" fill="#C05A20" font-size="12">u₁·v₃</text>

  <rect x="486" y="68" width="100" height="48" rx="4" fill="#E07B39" fill-opacity="0.10" stroke="#E07B39" stroke-width="1.2"/>
  <text x="536" y="94" text-anchor="middle" fill="#C05A20" font-size="12">u₁·v₄</text>

  <!-- Row 2 -->
  <rect x="198" y="120" width="88" height="48" rx="4" fill="#E07B39" fill-opacity="0.10" stroke="#E07B39" stroke-width="1.2"/>
  <text x="242" y="146" text-anchor="middle" fill="#C05A20" font-size="12">u₂·v₁</text>

  <rect x="294" y="120" width="88" height="48" rx="4" fill="#E07B39" fill-opacity="0.18" stroke="#E07B39" stroke-width="1.5"/>
  <text x="338" y="146" text-anchor="middle" fill="#C05A20" font-size="12">u₂·v₂</text>

  <rect x="390" y="120" width="88" height="48" rx="4" fill="#E07B39" fill-opacity="0.10" stroke="#E07B39" stroke-width="1.2"/>
  <text x="434" y="146" text-anchor="middle" fill="#C05A20" font-size="12">u₂·v₃</text>

  <rect x="486" y="120" width="100" height="48" rx="4" fill="#E07B39" fill-opacity="0.10" stroke="#E07B39" stroke-width="1.2"/>
  <text x="536" y="146" text-anchor="middle" fill="#C05A20" font-size="12">u₂·v₄</text>

  <!-- Row 3 -->
  <rect x="198" y="172" width="88" height="48" rx="4" fill="#E07B39" fill-opacity="0.10" stroke="#E07B39" stroke-width="1.2"/>
  <text x="242" y="198" text-anchor="middle" fill="#C05A20" font-size="12">u₃·v₁</text>

  <rect x="294" y="172" width="88" height="48" rx="4" fill="#E07B39" fill-opacity="0.10" stroke="#E07B39" stroke-width="1.2"/>
  <text x="338" y="198" text-anchor="middle" fill="#C05A20" font-size="12">u₃·v₂</text>

  <rect x="390" y="172" width="88" height="48" rx="4" fill="#E07B39" fill-opacity="0.18" stroke="#E07B39" stroke-width="1.5"/>
  <text x="434" y="198" text-anchor="middle" fill="#C05A20" font-size="12">u₃·v₃</text>

  <rect x="486" y="172" width="100" height="48" rx="4" fill="#E07B39" fill-opacity="0.10" stroke="#E07B39" stroke-width="1.2"/>
  <text x="536" y="198" text-anchor="middle" fill="#C05A20" font-size="12">u₃·v₄</text>

  <!-- Row 4 -->
  <rect x="198" y="224" width="88" height="48" rx="4" fill="#E07B39" fill-opacity="0.10" stroke="#E07B39" stroke-width="1.2"/>
  <text x="242" y="250" text-anchor="middle" fill="#C05A20" font-size="12">u₄·v₁</text>

  <rect x="294" y="224" width="88" height="48" rx="4" fill="#E07B39" fill-opacity="0.10" stroke="#E07B39" stroke-width="1.2"/>
  <text x="338" y="250" text-anchor="middle" fill="#C05A20" font-size="12">u₄·v₂</text>

  <rect x="390" y="224" width="88" height="48" rx="4" fill="#E07B39" fill-opacity="0.10" stroke="#E07B39" stroke-width="1.2"/>
  <text x="434" y="250" text-anchor="middle" fill="#C05A20" font-size="12">u₄·v₃</text>

  <rect x="486" y="224" width="100" height="48" rx="4" fill="#E07B39" fill-opacity="0.18" stroke="#E07B39" stroke-width="1.5"/>
  <text x="536" y="250" text-anchor="middle" fill="#C05A20" font-size="12">u₄·v₄</text>

  <!-- Matrix label -->
  <text x="392" y="308" text-anchor="middle" fill="#C05A20" font-size="14" font-weight="bold">uvᵀ</text>
  <text x="392" y="326" text-anchor="middle" fill="#555" font-size="11">(4×4, rank 1)</text>

  <!-- = sign -->
  <text x="168" y="178" text-anchor="middle" fill="#333" font-size="26">×</text>

  <!-- Key note -->
  <text x="680" y="185" text-anchor="middle" fill="#888" font-size="11">Each entry</text>
  <text x="680" y="200" text-anchor="middle" fill="#888" font-size="11">= uᵢ × vⱼ</text>
  <text x="680" y="230" text-anchor="middle" fill="#888" font-size="11">All rows are</text>
  <text x="680" y="245" text-anchor="middle" fill="#888" font-size="11">multiples of vᵀ</text>
  <text x="680" y="275" text-anchor="middle" fill="#888" font-size="11">→ rank 1</text>
</svg>
