<svg xmlns="http://www.w3.org/2000/svg" viewBox="0 0 800 400" font-family="Arial, sans-serif" font-size="13">

  <!-- Background -->
  <rect width="800" height="400" fill="#f8f9fa"/>

  <!-- ===== LEFT PANEL: Full-rank weight matrix ===== -->
  <rect x="20" y="10" width="340" height="320" rx="8" fill="#ffffff" stroke="#ccc" stroke-width="1.2"/>
  <text x="190" y="34" text-anchor="middle" font-size="14" font-weight="bold" fill="#1a1a2e">Before Training (Full Rank)</text>
  <text x="190" y="52" text-anchor="middle" font-size="11" fill="#555">Weight matrix W — diverse rows</text>

  <!-- Grid of weight cells: 6x6 -->
  <!-- Row colors vary significantly (diverse) -->
  <!-- We use a palette: teal, coral, gold, slate, lavender, mint -->
  <!-- Row 1 -->
  <rect x="55"  y="62" width="30" height="22" rx="2" fill="#2a9d8f" opacity="0.90"/>
  <rect x="90"  y="62" width="30" height="22" rx="2" fill="#e76f51" opacity="0.75"/>
  <rect x="125" y="62" width="30" height="22" rx="2" fill="#264653" opacity="0.80"/>
  <rect x="160" y="62" width="30" height="22" rx="2" fill="#e9c46a" opacity="0.85"/>
  <rect x="195" y="62" width="30" height="22" rx="2" fill="#2a9d8f" opacity="0.55"/>
  <rect x="230" y="62" width="30" height="22" rx="2" fill="#e76f51" opacity="0.60"/>

  <!-- Row 2 -->
  <rect x="55"  y="89" width="30" height="22" rx="2" fill="#e76f51" opacity="0.85"/>
  <rect x="90"  y="89" width="30" height="22" rx="2" fill="#264653" opacity="0.90"/>
  <rect x="125" y="89" width="30" height="22" rx="2" fill="#e9c46a" opacity="0.70"/>
  <rect x="160" y="89" width="30" height="22" rx="2" fill="#2a9d8f" opacity="0.65"/>
  <rect x="195" y="89" width="30" height="22" rx="2" fill="#e76f51" opacity="0.80"/>
  <rect x="230" y="89" width="30" height="22" rx="2" fill="#264653" opacity="0.55"/>

  <!-- Row 3 -->
  <rect x="55"  y="116" width="30" height="22" rx="2" fill="#e9c46a" opacity="0.80"/>
  <rect x="90"  y="116" width="30" height="22" rx="2" fill="#2a9d8f" opacity="0.70"/>
  <rect x="125" y="116" width="30" height="22" rx="2" fill="#e76f51" opacity="0.55"/>
  <rect x="160" y="116" width="30" height="22" rx="2" fill="#264653" opacity="0.75"/>
  <rect x="195" y="116" width="30" height="22" rx="2" fill="#e9c46a" opacity="0.60"/>
  <rect x="230" y="116" width="30" height="22" rx="2" fill="#2a9d8f" opacity="0.90"/>

  <!-- Row 4 -->
  <rect x="55"  y="143" width="30" height="22" rx="2" fill="#264653" opacity="0.65"/>
  <rect x="90"  y="143" width="30" height="22" rx="2" fill="#e9c46a" opacity="0.85"/>
  <rect x="125" y="143" width="30" height="22" rx="2" fill="#2a9d8f" opacity="0.80"/>
  <rect x="160" y="143" width="30" height="22" rx="2" fill="#e76f51" opacity="0.70"/>
  <rect x="195" y="143" width="30" height="22" rx="2" fill="#264653" opacity="0.90"/>
  <rect x="230" y="143" width="30" height="22" rx="2" fill="#e9c46a" opacity="0.55"/>

  <!-- Row 5 -->
  <rect x="55"  y="170" width="30" height="22" rx="2" fill="#2a9d8f" opacity="0.70"/>
  <rect x="90"  y="170" width="30" height="22" rx="2" fill="#e76f51" opacity="0.90"/>
  <rect x="125" y="170" width="30" height="22" rx="2" fill="#264653" opacity="0.60"/>
  <rect x="160" y="170" width="30" height="22" rx="2" fill="#e9c46a" opacity="0.80"/>
  <rect x="195" y="170" width="30" height="22" rx="2" fill="#2a9d8f" opacity="0.85"/>
  <rect x="230" y="170" width="30" height="22" rx="2" fill="#e76f51" opacity="0.75"/>

  <!-- Row 6 -->
  <rect x="55"  y="197" width="30" height="22" rx="2" fill="#e76f51" opacity="0.60"/>
  <rect x="90"  y="197" width="30" height="22" rx="2" fill="#264653" opacity="0.75"/>
  <rect x="125" y="197" width="30" height="22" rx="2" fill="#e9c46a" opacity="0.90"/>
  <rect x="160" y="197" width="30" height="22" rx="2" fill="#2a9d8f" opacity="0.80"/>
  <rect x="195" y="197" width="30" height="22" rx="2" fill="#e76f51" opacity="0.65"/>
  <rect x="230" y="197" width="30" height="22" rx="2" fill="#264653" opacity="0.85"/>

  <!-- Row labels -->
  <text x="43" y="77"  text-anchor="end" font-size="10" fill="#444">r1</text>
  <text x="43" y="104" text-anchor="end" font-size="10" fill="#444">r2</text>
  <text x="43" y="131" text-anchor="end" font-size="10" fill="#444">r3</text>
  <text x="43" y="158" text-anchor="end" font-size="10" fill="#444">r4</text>
  <text x="43" y="185" text-anchor="end" font-size="10" fill="#444">r5</text>
  <text x="43" y="212" text-anchor="end" font-size="10" fill="#444">r6</text>

  <!-- Left singular value bar chart -->
  <text x="190" y="247" text-anchor="middle" font-size="11" font-weight="bold" fill="#1a1a2e">Singular Values σ</text>
  <!-- 6 bars, all substantial -->
  <rect x="60"  y="260" width="28" height="42" rx="2" fill="#2a9d8f"/>
  <rect x="95"  y="268" width="28" height="34" rx="2" fill="#2a9d8f" opacity="0.85"/>
  <rect x="130" y="275" width="28" height="27" rx="2" fill="#2a9d8f" opacity="0.70"/>
  <rect x="165" y="281" width="28" height="21" rx="2" fill="#2a9d8f" opacity="0.55"/>
  <rect x="200" y="286" width="28" height="16" rx="2" fill="#2a9d8f" opacity="0.45"/>
  <rect x="235" y="290" width="28" height="12" rx="2" fill="#2a9d8f" opacity="0.35"/>
  <!-- baseline -->
  <line x1="48" y1="302" x2="278" y2="302" stroke="#999" stroke-width="1"/>
  <text x="163" y="316" text-anchor="middle" font-size="10" fill="#555">σ₁  σ₂  σ₃  σ₄  σ₅  σ₆</text>
  <text x="163" y="330" text-anchor="middle" font-size="10" fill="#2a9d8f" font-style="italic">many non-zero — rank ≈ 6</text>

  <!-- ===== ARROW ===== -->
  <defs>
    <marker id="arrowhead" markerWidth="10" markerHeight="7" refX="10" refY="3.5" orient="auto">
      <polygon points="0 0, 10 3.5, 0 7" fill="#c0392b"/>
    </marker>
  </defs>
  <line x1="368" y1="165" x2="432" y2="165" stroke="#c0392b" stroke-width="2.5" marker-end="url(#arrowhead)"/>
  <text x="400" y="155" text-anchor="middle" font-size="11" fill="#c0392b" font-weight="bold">training</text>
  <text x="400" y="145" text-anchor="middle" font-size="10" fill="#c0392b">(deep / long)</text>

  <!-- ===== RIGHT PANEL: Collapsed rank ===== -->
  <rect x="440" y="10" width="340" height="320" rx="8" fill="#ffffff" stroke="#ccc" stroke-width="1.2"/>
  <text x="610" y="34" text-anchor="middle" font-size="14" font-weight="bold" fill="#c0392b">After Training (Rank Collapse)</text>
  <text x="610" y="52" text-anchor="middle" font-size="11" fill="#555">Weight matrix W — rows converge</text>

  <!-- Grid: rows become nearly identical (same teal color) -->
  <!-- Row 1 — near-identical to others -->
  <rect x="475" y="62" width="30" height="22" rx="2" fill="#2a9d8f" opacity="0.85"/>
  <rect x="510" y="62" width="30" height="22" rx="2" fill="#2a9d8f" opacity="0.80"/>
  <rect x="545" y="62" width="30" height="22" rx="2" fill="#2a9d8f" opacity="0.88"/>
  <rect x="580" y="62" width="30" height="22" rx="2" fill="#2a9d8f" opacity="0.82"/>
  <rect x="615" y="62" width="30" height="22" rx="2" fill="#2a9d8f" opacity="0.86"/>
  <rect x="650" y="62" width="30" height="22" rx="2" fill="#2a9d8f" opacity="0.84"/>

  <!-- Row 2 — nearly same -->
  <rect x="475" y="89" width="30" height="22" rx="2" fill="#2a9d8f" opacity="0.83"/>
  <rect x="510" y="89" width="30" height="22" rx="2" fill="#2a9d8f" opacity="0.87"/>
  <rect x="545" y="89" width="30" height="22" rx="2" fill="#2a9d8f" opacity="0.81"/>
  <rect x="580" y="89" width="30" height="22" rx="2" fill="#2a9d8f" opacity="0.85"/>
  <rect x="615" y="89" width="30" height="22" rx="2" fill="#2a9d8f" opacity="0.83"/>
  <rect x="650" y="89" width="30" height="22" rx="2" fill="#2a9d8f" opacity="0.88"/>

  <!-- Row 3 — nearly same -->
  <rect x="475" y="116" width="30" height="22" rx="2" fill="#2a9d8f" opacity="0.86"/>
  <rect x="510" y="116" width="30" height="22" rx="2" fill="#2a9d8f" opacity="0.82"/>
  <rect x="545" y="116" width="30" height="22" rx="2" fill="#2a9d8f" opacity="0.85"/>
  <rect x="580" y="116" width="30" height="22" rx="2" fill="#2a9d8f" opacity="0.80"/>
  <rect x="615" y="116" width="30" height="22" rx="2" fill="#2a9d8f" opacity="0.87"/>
  <rect x="650" y="116" width="30" height="22" rx="2" fill="#2a9d8f" opacity="0.83"/>

  <!-- Row 4 — nearly same -->
  <rect x="475" y="143" width="30" height="22" rx="2" fill="#2a9d8f" opacity="0.84"/>
  <rect x="510" y="143" width="30" height="22" rx="2" fill="#2a9d8f" opacity="0.88"/>
  <rect x="545" y="143" width="30" height="22" rx="2" fill="#2a9d8f" opacity="0.83"/>
  <rect x="580" y="143" width="30" height="22" rx="2" fill="#2a9d8f" opacity="0.86"/>
  <rect x="615" y="143" width="30" height="22" rx="2" fill="#2a9d8f" opacity="0.82"/>
  <rect x="650" y="143" width="30" height="22" rx="2" fill="#2a9d8f" opacity="0.85"/>

  <!-- Row 5 — nearly same -->
  <rect x="475" y="170" width="30" height="22" rx="2" fill="#2a9d8f" opacity="0.85"/>
  <rect x="510" y="170" width="30" height="22" rx="2" fill="#2a9d8f" opacity="0.81"/>
  <rect x="545" y="170" width="30" height="22" rx="2" fill="#2a9d8f" opacity="0.87"/>
  <rect x="580" y="170" width="30" height="22" rx="2" fill="#2a9d8f" opacity="0.84"/>
  <rect x="615" y="170" width="30" height="22" rx="2" fill="#2a9d8f" opacity="0.80"/>
  <rect x="650" y="170" width="30" height="22" rx="2" fill="#2a9d8f" opacity="0.86"/>

  <!-- Row 6 — nearly same -->
  <rect x="475" y="197" width="30" height="22" rx="2" fill="#2a9d8f" opacity="0.82"/>
  <rect x="510" y="197" width="30" height="22" rx="2" fill="#2a9d8f" opacity="0.86"/>
  <rect x="545" y="197" width="30" height="22" rx="2" fill="#2a9d8f" opacity="0.84"/>
  <rect x="580" y="197" width="30" height="22" rx="2" fill="#2a9d8f" opacity="0.88"/>
  <rect x="615" y="197" width="30" height="22" rx="2" fill="#2a9d8f" opacity="0.83"/>
  <rect x="650" y="197" width="30" height="22" rx="2" fill="#2a9d8f" opacity="0.81"/>

  <!-- Row labels -->
  <text x="463" y="77"  text-anchor="end" font-size="10" fill="#444">r1</text>
  <text x="463" y="104" text-anchor="end" font-size="10" fill="#999">r2≈r1</text>
  <text x="463" y="131" text-anchor="end" font-size="10" fill="#999">r3≈r1</text>
  <text x="463" y="158" text-anchor="end" font-size="10" fill="#999">r4≈r1</text>
  <text x="463" y="185" text-anchor="end" font-size="10" fill="#999">r5≈r1</text>
  <text x="463" y="212" text-anchor="end" font-size="10" fill="#999">r6≈r1</text>

  <!-- Right singular value bar chart -->
  <text x="610" y="247" text-anchor="middle" font-size="11" font-weight="bold" fill="#1a1a2e">Singular Values σ</text>
  <!-- 1 tall bar, 5 tiny/negligible bars -->
  <rect x="480" y="220" width="28" height="82" rx="2" fill="#c0392b"/>
  <rect x="515" y="298" width="28" height="4"  rx="2" fill="#c0392b" opacity="0.40"/>
  <rect x="550" y="299" width="28" height="3"  rx="2" fill="#c0392b" opacity="0.30"/>
  <rect x="585" y="300" width="28" height="2"  rx="2" fill="#c0392b" opacity="0.25"/>
  <rect x="620" y="300" width="28" height="2"  rx="2" fill="#c0392b" opacity="0.20"/>
  <rect x="655" y="301" width="28" height="1"  rx="2" fill="#c0392b" opacity="0.15"/>
  <!-- baseline -->
  <line x1="468" y1="302" x2="698" y2="302" stroke="#999" stroke-width="1"/>
  <text x="583" y="316" text-anchor="middle" font-size="10" fill="#555">σ₁  σ₂  σ₃  σ₄  σ₅  σ₆</text>
  <text x="583" y="330" text-anchor="middle" font-size="10" fill="#c0392b" font-style="italic">σ₁ ≫ rest — effective rank ≈ 1</text>

  <!-- ===== LEGEND ===== -->
  <rect x="20" y="340" width="760" height="52" rx="6" fill="#eef2f7" stroke="#ccc" stroke-width="1"/>
  <rect x="36"  y="354" width="18" height="14" rx="2" fill="#2a9d8f"/>
  <text x="60"  y="365" font-size="11" fill="#333">Diverse / active weight</text>
  <rect x="210" y="354" width="18" height="14" rx="2" fill="#e76f51"/>
  <text x="234" y="365" font-size="11" fill="#333">Distinct weight pattern</text>
  <rect x="390" y="354" width="18" height="14" rx="2" fill="#e9c46a"/>
  <text x="414" y="365" font-size="11" fill="#333">Another distinct pattern</text>
  <rect x="570" y="354" width="18" height="14" rx="2" fill="#c0392b"/>
  <text x="594" y="365" font-size="11" fill="#333">Collapsed / dominant direction</text>
  <text x="400" y="383" text-anchor="middle" font-size="10" fill="#888" font-style="italic">Rows r2–r6 become near-copies of r1; the matrix's information collapses into one dominant singular direction</text>

</svg>
