<?xml version="1.0" encoding="UTF-8"?>
<svg xmlns="http://www.w3.org/2000/svg" viewBox="0 0 800 400" style="font-family:Georgia,serif;">
  <defs>
    <marker id="arr-axis" markerWidth="7" markerHeight="5" refX="6" refY="2.5" orient="auto">
      <polygon points="0 0, 7 2.5, 0 5" fill="#C4A87A"/>
    </marker>
    <marker id="arr-query" markerWidth="8" markerHeight="6" refX="7" refY="3" orient="auto">
      <polygon points="0 0, 8 3, 0 6" fill="#7C2530"/>
    </marker>
  </defs>

  <!-- Background -->
  <rect x="1" y="1" width="798" height="398" fill="#FDFAF4" stroke="#D4C5A9" stroke-width="1.5" rx="5"/>

  <!-- Panel divider -->
  <line x1="390" y1="20" x2="390" y2="385" stroke="#D4C5A9" stroke-width="1" stroke-dasharray="4,3"/>

  <!-- ══ PANEL 1: EXACT KNN — SCATTER WITH KD-TREE PARTITION ══ -->
  <text x="195" y="17" text-anchor="middle" font-size="10" fill="#6B5D4F" letter-spacing="1">EXACT SEARCH — KD-TREE PARTITION</text>

  <!-- Axes -->
  <line x1="30" y1="340" x2="368" y2="340" stroke="#C4A87A" stroke-width="1.2" marker-end="url(#arr-axis)"/>
  <line x1="30" y1="344" x2="30"  y2="30"  stroke="#C4A87A" stroke-width="1.2" marker-end="url(#arr-axis)"/>

  <!-- KD-tree partition lines (light, dashed) -->
  <!-- Vertical split at x=200 (panel-local) -->
  <line x1="200" y1="32" x2="200" y2="340" stroke="#B0956A" stroke-width="0.9" stroke-dasharray="5,3" opacity="0.6"/>
  <!-- Horizontal split left half at y=186 -->
  <line x1="30" y1="186" x2="200" y2="186" stroke="#B0956A" stroke-width="0.9" stroke-dasharray="5,3" opacity="0.6"/>
  <!-- Horizontal split right half at y=240 -->
  <line x1="200" y1="240" x2="368" y2="240" stroke="#B0956A" stroke-width="0.9" stroke-dasharray="5,3" opacity="0.6"/>
  <!-- Vertical split lower-right quad at x=292 -->
  <line x1="292" y1="240" x2="292" y2="340" stroke="#B0956A" stroke-width="0.9" stroke-dasharray="5,3" opacity="0.6"/>

  <!-- KD-tree label -->
  <text x="348" y="44" text-anchor="end" font-size="8" fill="#B0956A" font-style="italic">KD-tree cells</text>

  <!-- Background data points (gray, non-neighbors) -->
  <circle cx="55"  cy="70"  r="4" fill="#B0A090" fill-opacity="0.5" stroke="#9A8878" stroke-width="0.7"/>
  <circle cx="80"  cy="110" r="4" fill="#B0A090" fill-opacity="0.5" stroke="#9A8878" stroke-width="0.7"/>
  <circle cx="48"  cy="155" r="4" fill="#B0A090" fill-opacity="0.5" stroke="#9A8878" stroke-width="0.7"/>
  <circle cx="100" cy="80"  r="4" fill="#B0A090" fill-opacity="0.5" stroke="#9A8878" stroke-width="0.7"/>
  <circle cx="130" cy="55"  r="4" fill="#B0A090" fill-opacity="0.5" stroke="#9A8878" stroke-width="0.7"/>
  <circle cx="62"  cy="220" r="4" fill="#B0A090" fill-opacity="0.5" stroke="#9A8878" stroke-width="0.7"/>
  <circle cx="95"  cy="255" r="4" fill="#B0A090" fill-opacity="0.5" stroke="#9A8878" stroke-width="0.7"/>
  <circle cx="135" cy="290" r="4" fill="#B0A090" fill-opacity="0.5" stroke="#9A8878" stroke-width="0.7"/>
  <circle cx="50"  cy="305" r="4" fill="#B0A090" fill-opacity="0.5" stroke="#9A8878" stroke-width="0.7"/>
  <circle cx="165" cy="130" r="4" fill="#B0A090" fill-opacity="0.5" stroke="#9A8878" stroke-width="0.7"/>
  <circle cx="240" cy="60"  r="4" fill="#B0A090" fill-opacity="0.5" stroke="#9A8878" stroke-width="0.7"/>
  <circle cx="280" cy="90"  r="4" fill="#B0A090" fill-opacity="0.5" stroke="#9A8878" stroke-width="0.7"/>
  <circle cx="320" cy="55"  r="4" fill="#B0A090" fill-opacity="0.5" stroke="#9A8878" stroke-width="0.7"/>
  <circle cx="350" cy="100" r="4" fill="#B0A090" fill-opacity="0.5" stroke="#9A8878" stroke-width="0.7"/>
  <circle cx="310" cy="145" r="4" fill="#B0A090" fill-opacity="0.5" stroke="#9A8878" stroke-width="0.7"/>
  <circle cx="260" cy="165" r="4" fill="#B0A090" fill-opacity="0.5" stroke="#9A8878" stroke-width="0.7"/>
  <circle cx="230" cy="260" r="4" fill="#B0A090" fill-opacity="0.5" stroke="#9A8878" stroke-width="0.7"/>
  <circle cx="270" cy="295" r="4" fill="#B0A090" fill-opacity="0.5" stroke="#9A8878" stroke-width="0.7"/>
  <circle cx="340" cy="270" r="4" fill="#B0A090" fill-opacity="0.5" stroke="#9A8878" stroke-width="0.7"/>
  <circle cx="355" cy="310" r="4" fill="#B0A090" fill-opacity="0.5" stroke="#9A8878" stroke-width="0.7"/>

  <!-- k=3 nearest neighbor points (highlighted, blue) -->
  <!-- neighbor 1 at (158, 200) -->
  <circle cx="158" cy="200" r="5.5" fill="#2D5A8E" fill-opacity="0.75" stroke="#2D5A8E" stroke-width="1.2"/>
  <!-- neighbor 2 at (190, 165) -->
  <circle cx="190" cy="165" r="5.5" fill="#2D5A8E" fill-opacity="0.75" stroke="#2D5A8E" stroke-width="1.2"/>
  <!-- neighbor 3 at (215, 215) -->
  <circle cx="215" cy="215" r="5.5" fill="#2D5A8E" fill-opacity="0.75" stroke="#2D5A8E" stroke-width="1.2"/>

  <!-- Search radius circle (dashed, around query) -->
  <circle cx="183" cy="193" r="48" fill="none" stroke="#7C2530" stroke-width="1" stroke-dasharray="5,3" opacity="0.6"/>

  <!-- Lines from query to k neighbors -->
  <line x1="183" y1="193" x2="158" y2="200" stroke="#7C2530" stroke-width="1.2" opacity="0.7"/>
  <line x1="183" y1="193" x2="190" y2="165" stroke="#7C2530" stroke-width="1.2" opacity="0.7"/>
  <line x1="183" y1="193" x2="215" y2="215" stroke="#7C2530" stroke-width="1.2" opacity="0.7"/>

  <!-- Query point (red star / large circle) -->
  <circle cx="183" cy="193" r="7" fill="#7C2530" stroke="#5C1520" stroke-width="1.5"/>

  <!-- Query label -->
  <text x="183" y="183" text-anchor="middle" font-size="9" fill="#7C2530" font-weight="bold">query q</text>

  <!-- k=3 label -->
  <text x="228" y="210" font-size="8.5" fill="#2D5A8E" font-style="italic">k=3 nearest</text>
  <text x="228" y="221" font-size="8.5" fill="#2D5A8E" font-style="italic">neighbors</text>

  <!-- Bottom label -->
  <text x="195" y="358" text-anchor="middle" font-size="8" fill="#5C3D1E">exact search visits all cells within radius — guaranteed correct</text>

  <!-- ══ PANEL 2: APPROXIMATE SEARCH — HNSW LAYERS ══ -->
  <text x="597" y="17" text-anchor="middle" font-size="10" fill="#6B5D4F" letter-spacing="1">APPROXIMATE SEARCH — HNSW LAYERS</text>

  <!-- HNSW layer 0 (bottom — dense) -->
  <rect x="408" y="280" width="370" height="88" rx="4" fill="#EDE5D0" fill-opacity="0.5" stroke="#C4A87A" stroke-width="0.8"/>
  <text x="415" y="295" font-size="8" fill="#7A5230" font-style="italic">layer 0 — dense graph (all nodes)</text>

  <!-- Layer 0 nodes (small, many) -->
  <circle cx="435" cy="320" r="3.5" fill="#B0A090" stroke="#9A8878" stroke-width="0.6"/>
  <circle cx="460" cy="310" r="3.5" fill="#B0A090" stroke="#9A8878" stroke-width="0.6"/>
  <circle cx="490" cy="330" r="3.5" fill="#B0A090" stroke="#9A8878" stroke-width="0.6"/>
  <circle cx="520" cy="305" r="3.5" fill="#B0A090" stroke="#9A8878" stroke-width="0.6"/>
  <circle cx="550" cy="325" r="3.5" fill="#B0A090" stroke="#9A8878" stroke-width="0.6"/>
  <circle cx="575" cy="310" r="3.5" fill="#B0A090" stroke="#9A8878" stroke-width="0.6"/>
  <circle cx="605" cy="330" r="3.5" fill="#B0A090" stroke="#9A8878" stroke-width="0.6"/>
  <circle cx="635" cy="308" r="3.5" fill="#B0A090" stroke="#9A8878" stroke-width="0.6"/>
  <circle cx="660" cy="325" r="3.5" fill="#B0A090" stroke="#9A8878" stroke-width="0.6"/>
  <circle cx="690" cy="312" r="3.5" fill="#B0A090" stroke="#9A8878" stroke-width="0.6"/>
  <circle cx="720" cy="330" r="3.5" fill="#B0A090" stroke="#9A8878" stroke-width="0.6"/>
  <circle cx="748" cy="315" r="3.5" fill="#2D5A8E" stroke="#2D5A8E" stroke-width="1"/> <!-- ANN result -->
  <!-- Layer 0 edges (light) -->
  <line x1="435" y1="320" x2="460" y2="310" stroke="#C4A87A" stroke-width="0.7" opacity="0.5"/>
  <line x1="460" y1="310" x2="490" y2="330" stroke="#C4A87A" stroke-width="0.7" opacity="0.5"/>
  <line x1="490" y1="330" x2="520" y2="305" stroke="#C4A87A" stroke-width="0.7" opacity="0.5"/>
  <line x1="520" y1="305" x2="550" y2="325" stroke="#C4A87A" stroke-width="0.7" opacity="0.5"/>
  <line x1="550" y1="325" x2="575" y2="310" stroke="#C4A87A" stroke-width="0.7" opacity="0.5"/>
  <line x1="575" y1="310" x2="605" y2="330" stroke="#C4A87A" stroke-width="0.7" opacity="0.5"/>
  <line x1="605" y1="330" x2="635" y2="308" stroke="#C4A87A" stroke-width="0.7" opacity="0.5"/>
  <line x1="635" y1="308" x2="660" y2="325" stroke="#C4A87A" stroke-width="0.7" opacity="0.5"/>
  <line x1="660" y1="325" x2="690" y2="312" stroke="#C4A87A" stroke-width="0.7" opacity="0.5"/>
  <line x1="690" y1="312" x2="720" y2="330" stroke="#C4A87A" stroke-width="0.7" opacity="0.5"/>
  <line x1="720" y1="330" x2="748" y2="315" stroke="#C4A87A" stroke-width="0.7" opacity="0.5"/>

  <!-- HNSW layer 1 (middle — sparser) -->
  <rect x="408" y="185" width="370" height="82" rx="4" fill="#EDE5D0" fill-opacity="0.35" stroke="#C4A87A" stroke-width="0.8"/>
  <text x="415" y="200" font-size="8" fill="#7A5230" font-style="italic">layer 1 — sparse graph (subset)</text>

  <circle cx="460" cy="230" r="4" fill="#B0A090" stroke="#9A8878" stroke-width="0.7"/>
  <circle cx="520" cy="218" r="4" fill="#B0A090" stroke="#9A8878" stroke-width="0.7"/>
  <circle cx="575" cy="235" r="4" fill="#B0A090" stroke="#9A8878" stroke-width="0.7"/>
  <circle cx="635" cy="220" r="4" fill="#B0A090" stroke="#9A8878" stroke-width="0.7"/>
  <circle cx="690" cy="238" r="4" fill="#B0A090" stroke="#9A8878" stroke-width="0.7"/>
  <circle cx="748" cy="222" r="4" fill="#2D5A8E" stroke="#2D5A8E" stroke-width="1"/>
  <line x1="460" y1="230" x2="520" y2="218" stroke="#C4A87A" stroke-width="1" opacity="0.6"/>
  <line x1="520" y1="218" x2="575" y2="235" stroke="#C4A87A" stroke-width="1" opacity="0.6"/>
  <line x1="575" y1="235" x2="635" y2="220" stroke="#C4A87A" stroke-width="1" opacity="0.6"/>
  <line x1="635" y1="220" x2="690" y2="238" stroke="#C4A87A" stroke-width="1" opacity="0.6"/>
  <line x1="690" y1="238" x2="748" y2="222" stroke="#C4A87A" stroke-width="1" opacity="0.6"/>

  <!-- HNSW layer 2 (top — very sparse entry) -->
  <rect x="408" y="100" width="370" height="72" rx="4" fill="#EDE5D0" fill-opacity="0.2" stroke="#C4A87A" stroke-width="0.8"/>
  <text x="415" y="115" font-size="8" fill="#7A5230" font-style="italic">layer 2 — entry point (coarsest)</text>

  <circle cx="520" cy="140" r="5" fill="#A07840" stroke="#7A5230" stroke-width="1"/>
  <circle cx="690" cy="136" r="5" fill="#A07840" stroke="#7A5230" stroke-width="1"/>
  <line x1="520" y1="140" x2="690" y2="136" stroke="#C4A87A" stroke-width="1.2" opacity="0.7"/>

  <!-- Query enters at top -->
  <circle cx="597" cy="55" r="7" fill="#7C2530" stroke="#5C1520" stroke-width="1.5"/>
  <text x="597" y="45" text-anchor="middle" font-size="9" fill="#7C2530" font-weight="bold">query q</text>
  <line x1="597" y1="62" x2="597" y2="98" stroke="#7C2530" stroke-width="1.4" stroke-dasharray="3,2" marker-end="url(#arr-query)"/>

  <!-- Traversal arrows (red, showing greedy descent through layers) -->
  <line x1="597" y1="100" x2="523" y2="138" stroke="#7C2530" stroke-width="1.3" marker-end="url(#arr-query)" opacity="0.8"/>
  <line x1="523" y1="140" x2="523" y2="183" stroke="#7C2530" stroke-width="1.3" marker-end="url(#arr-query)" opacity="0.8"/>
  <line x1="523" y1="185" x2="523" y2="215" stroke="#7C2530" stroke-width="1.3" marker-end="url(#arr-query)" opacity="0.8"/>
  <line x1="523" y1="218" x2="637" y2="218" stroke="#7C2530" stroke-width="1.3" marker-end="url(#arr-query)" opacity="0.8"/>
  <line x1="637" y1="220" x2="637" y2="278" stroke="#7C2530" stroke-width="1.3" marker-end="url(#arr-query)" opacity="0.8"/>
  <line x1="637" y1="280" x2="750" y2="313" stroke="#7C2530" stroke-width="1.3" marker-end="url(#arr-query)" opacity="0.8"/>

  <!-- ANN result label -->
  <text x="757" y="312" font-size="8" fill="#2D5A8E" font-style="italic">ANN</text>
  <text x="757" y="322" font-size="8" fill="#2D5A8E" font-style="italic">result</text>

  <!-- "approximate vs exact" annotation -->
  <text x="597" y="375" text-anchor="middle" font-size="8" fill="#5C3D1E">greedy layer traversal — fast but //approximate//; recall@k trades speed for accuracy</text>

  <!-- Legend -->
  <circle cx="410" cy="392" r="4" fill="#7C2530"/>
  <text x="418" y="395" font-size="8" fill="#5C3D1E">query</text>
  <circle cx="448" cy="392" r="4" fill="#2D5A8E" fill-opacity="0.75"/>
  <text x="456" y="395" font-size="8" fill="#5C3D1E">k=3 neighbors / ANN result</text>
  <circle cx="570" cy="392" r="4" fill="#B0A090"/>
  <text x="578" y="395" font-size="8" fill="#5C3D1E">dataset points</text>
  <line x1="625" y1="392" x2="645" y2="392" stroke="#B0956A" stroke-width="1" stroke-dasharray="4,2"/>
  <text x="648" y="395" font-size="8" fill="#5C3D1E">partition / graph edges</text>
</svg>
