<?xml version="1.0" encoding="UTF-8"?>
<svg xmlns="http://www.w3.org/2000/svg" viewBox="0 0 800 400" style="font-family:Georgia,serif;">
  <defs>
    <marker id="arr" markerWidth="8" markerHeight="6" refX="7" refY="3" orient="auto">
      <polygon points="0 0, 8 3, 0 6" fill="#7C2530"/>
    </marker>
  </defs>

  <!-- Background -->
  <rect x="1" y="1" width="798" height="398" fill="#FDFAF4" stroke="#D4C5A9" stroke-width="1.5" rx="5"/>

  <!-- ═══ LEFT PANEL: Regular K-Fold ═══ -->
  <rect x="10" y="10" width="375" height="380" fill="#FAF7F0" stroke="#D4C5A9" stroke-width="1" rx="4"/>
  <text x="197" y="32" text-anchor="middle" font-size="11" fill="#5C3D1E" font-weight="bold" letter-spacing="0.5">REGULAR 4-FOLD</text>
  <text x="197" y="46" text-anchor="middle" font-size="9" fill="#9B8B77" font-style="italic">class ratios vary across folds</text>

  <!-- Class legend left -->
  <rect x="28" y="56" width="10" height="10" fill="#7C2530" rx="2"/>
  <text x="42" y="65" font-size="8.5" fill="#5C3D1E">Class A (minority, 25%)</text>
  <rect x="155" y="56" width="10" height="10" fill="#4A7C59" rx="2"/>
  <text x="169" y="65" font-size="8.5" fill="#5C3D1E">Class B (majority, 75%)</text>

  <!-- Row labels (left) -->
  <text x="20" y="110" font-size="9" fill="#6B5D4F" text-anchor="middle" transform="rotate(-90,20,160)">fold</text>

  <!-- ── Regular Fold 1 ── (val fold: heavy class A) -->
  <!-- VAL block: 3 class A, 1 class B segments -->
  <rect x="38" y="82" width="22" height="26" rx="2" fill="#7C2530"/>
  <rect x="60" y="82" width="22" height="26" rx="2" fill="#7C2530"/>
  <rect x="82" y="82" width="22" height="26" rx="2" fill="#7C2530"/>
  <rect x="104" y="82" width="8"  height="26" rx="2" fill="#4A7C59"/>
  <!-- dashed border around val group -->
  <rect x="35" y="79" width="80" height="32" fill="none" stroke="#7C2530" stroke-width="1.2" stroke-dasharray="3,2" rx="3"/>
  <text x="75" y="99" text-anchor="middle" font-size="8" fill="#FDFAF4" font-weight="bold">VAL</text>
  <!-- TRAIN blocks 2-4: balanced -->
  <rect x="124" y="82" width="6"  height="26" rx="1" fill="#7C2530"/>
  <rect x="130" y="82" width="18" height="26" rx="1" fill="#4A7C59"/>
  <rect x="157" y="82" width="6"  height="26" rx="1" fill="#7C2530"/>
  <rect x="163" y="82" width="18" height="26" rx="1" fill="#4A7C59"/>
  <rect x="190" y="82" width="6"  height="26" rx="1" fill="#7C2530"/>
  <rect x="196" y="82" width="18" height="26" rx="1" fill="#4A7C59"/>
  <rect x="223" y="82" width="6"  height="26" rx="1" fill="#7C2530"/>
  <rect x="229" y="82" width="18" height="26" rx="1" fill="#4A7C59"/>
  <rect x="256" y="82" width="6"  height="26" rx="1" fill="#7C2530"/>
  <rect x="262" y="82" width="18" height="26" rx="1" fill="#4A7C59"/>
  <rect x="289" y="82" width="6"  height="26" rx="1" fill="#7C2530"/>
  <rect x="295" y="82" width="18" height="26" rx="1" fill="#4A7C59"/>
  <text x="218" y="97" text-anchor="middle" font-size="8" fill="#5C3D1E">TRAIN</text>
  <text x="340" y="92" font-size="8.5" fill="#7C2530" font-weight="bold">VAL: 75% A!</text>
  <text x="340" y="103" font-size="7.5" fill="#9B8B77">imbalanced</text>

  <!-- ── Regular Fold 2 ── (val fold: all B) -->
  <rect x="38" y="120" width="6"  height="26" rx="1" fill="#7C2530"/>
  <rect x="44" y="120" width="18" height="26" rx="1" fill="#4A7C59"/>
  <rect x="71" y="120" width="6"  height="26" rx="1" fill="#7C2530"/>
  <rect x="77" y="120" width="18" height="26" rx="1" fill="#4A7C59"/>
  <rect x="35" y="117" width="65" height="32" fill="none" stroke="#7C2530" stroke-width="1.2" stroke-dasharray="3,2" rx="3"/>
  <text x="67" y="137" text-anchor="middle" font-size="8" fill="#5C3D1E" font-weight="bold">VAL</text>
  <!-- Train blocks -->
  <rect x="110" y="120" width="6"  height="26" rx="1" fill="#7C2530"/>
  <rect x="116" y="120" width="18" height="26" rx="1" fill="#4A7C59"/>
  <rect x="143" y="120" width="22" height="26" rx="2" fill="#7C2530"/>
  <rect x="165" y="120" width="8"  height="26" rx="2" fill="#4A7C59"/>
  <rect x="182" y="120" width="6"  height="26" rx="1" fill="#7C2530"/>
  <rect x="188" y="120" width="18" height="26" rx="1" fill="#4A7C59"/>
  <rect x="215" y="120" width="6"  height="26" rx="1" fill="#7C2530"/>
  <rect x="221" y="120" width="18" height="26" rx="1" fill="#4A7C59"/>
  <rect x="248" y="120" width="6"  height="26" rx="1" fill="#7C2530"/>
  <rect x="254" y="120" width="18" height="26" rx="1" fill="#4A7C59"/>
  <text x="218" y="135" text-anchor="middle" font-size="8" fill="#5C3D1E">TRAIN</text>
  <text x="340" y="130" font-size="8.5" fill="#4A7C59" font-weight="bold">VAL: 100% B!</text>
  <text x="340" y="141" font-size="7.5" fill="#9B8B77">no class A seen</text>

  <!-- ── Regular Fold 3 ── (reasonable) -->
  <rect x="38" y="158" width="6"  height="26" rx="1" fill="#7C2530"/>
  <rect x="44" y="158" width="18" height="26" rx="1" fill="#4A7C59"/>
  <rect x="71" y="158" width="6"  height="26" rx="1" fill="#7C2530"/>
  <rect x="77" y="158" width="18" height="26" rx="1" fill="#4A7C59"/>
  <rect x="104" y="158" width="6"  height="26" rx="1" fill="#7C2530"/>
  <rect x="110" y="158" width="18" height="26" rx="1" fill="#4A7C59"/>
  <rect x="35" y="155" width="98" height="32" fill="none" stroke="#7C2530" stroke-width="1.2" stroke-dasharray="3,2" rx="3"/>
  <text x="84" y="175" text-anchor="middle" font-size="8" fill="#5C3D1E" font-weight="bold">VAL</text>
  <rect x="143" y="158" width="6"  height="26" rx="1" fill="#7C2530"/>
  <rect x="149" y="158" width="18" height="26" rx="1" fill="#4A7C59"/>
  <rect x="176" y="158" width="6"  height="26" rx="1" fill="#7C2530"/>
  <rect x="182" y="158" width="18" height="26" rx="1" fill="#4A7C59"/>
  <rect x="209" y="158" width="6"  height="26" rx="1" fill="#7C2530"/>
  <rect x="215" y="158" width="18" height="26" rx="1" fill="#4A7C59"/>
  <rect x="242" y="158" width="6"  height="26" rx="1" fill="#7C2530"/>
  <rect x="248" y="158" width="18" height="26" rx="1" fill="#4A7C59"/>
  <text x="218" y="173" text-anchor="middle" font-size="8" fill="#5C3D1E">TRAIN</text>
  <text x="340" y="168" font-size="8.5" fill="#5C3D1E">VAL: ~25% A</text>
  <text x="340" y="179" font-size="7.5" fill="#9B8B77">ok by chance</text>

  <!-- ── Regular Fold 4 ── (all A) -->
  <rect x="38" y="196" width="22" height="26" rx="2" fill="#7C2530"/>
  <rect x="60" y="196" width="22" height="26" rx="2" fill="#7C2530"/>
  <rect x="35" y="193" width="52" height="32" fill="none" stroke="#7C2530" stroke-width="1.2" stroke-dasharray="3,2" rx="3"/>
  <text x="61" y="213" text-anchor="middle" font-size="8" fill="#FDFAF4" font-weight="bold">VAL</text>
  <rect x="97" y="196" width="6"  height="26" rx="1" fill="#7C2530"/>
  <rect x="103" y="196" width="18" height="26" rx="1" fill="#4A7C59"/>
  <rect x="130" y="196" width="6"  height="26" rx="1" fill="#7C2530"/>
  <rect x="136" y="196" width="18" height="26" rx="1" fill="#4A7C59"/>
  <rect x="163" y="196" width="6"  height="26" rx="1" fill="#7C2530"/>
  <rect x="169" y="196" width="18" height="26" rx="1" fill="#4A7C59"/>
  <rect x="196" y="196" width="6"  height="26" rx="1" fill="#7C2530"/>
  <rect x="202" y="196" width="18" height="26" rx="1" fill="#4A7C59"/>
  <rect x="229" y="196" width="6"  height="26" rx="1" fill="#7C2530"/>
  <rect x="235" y="196" width="18" height="26" rx="1" fill="#4A7C59"/>
  <text x="218" y="211" text-anchor="middle" font-size="8" fill="#5C3D1E">TRAIN</text>
  <text x="340" y="206" font-size="8.5" fill="#7C2530" font-weight="bold">VAL: 100% A!</text>
  <text x="340" y="217" font-size="7.5" fill="#9B8B77">no class B seen</text>

  <!-- Row labels -->
  <text x="22" y="99"  font-size="8" fill="#6B5D4F">F1</text>
  <text x="22" y="137" font-size="8" fill="#6B5D4F">F2</text>
  <text x="22" y="175" font-size="8" fill="#6B5D4F">F3</text>
  <text x="22" y="213" font-size="8" fill="#6B5D4F">F4</text>

  <!-- Annotation arrow -->
  <line x1="75" y1="79" x2="75" y2="68" stroke="#7C2530" stroke-width="1.2" marker-end="url(#arr)"/>
  <text x="75" y="66" text-anchor="middle" font-size="8" fill="#7C2530">held-out val fold</text>

  <!-- Warning box -->
  <rect x="28" y="248" width="355" height="40" fill="#FDF0EF" stroke="#7C2530" stroke-width="1" rx="3"/>
  <text x="36" y="263" font-size="8.5" fill="#7C2530" font-weight="bold">Problem:</text>
  <text x="36" y="276" font-size="8" fill="#5C3D1E">Class proportions vary wildly between folds — fold scores are not</text>
  <text x="36" y="287" font-size="8" fill="#5C3D1E">comparable, and rare-class performance is unreliably estimated.</text>

  <!-- Dataset bar (left) -->
  <text x="197" y="310" text-anchor="middle" font-size="8.5" fill="#5C3D1E">Full dataset class ratio</text>
  <rect x="38"  y="315" width="80" height="14" fill="#7C2530" rx="2"/>
  <rect x="118" y="315" width="240" height="14" fill="#4A7C59" rx="2"/>
  <text x="78"  y="325" text-anchor="middle" font-size="8" fill="#FDFAF4">25% A</text>
  <text x="238" y="325" text-anchor="middle" font-size="8" fill="#FDFAF4">75% B</text>

  <!-- ═══ RIGHT PANEL: Stratified K-Fold ═══ -->
  <rect x="415" y="10" width="375" height="380" fill="#FAF7F0" stroke="#D4C5A9" stroke-width="1" rx="4"/>
  <text x="602" y="32" text-anchor="middle" font-size="11" fill="#5C3D1E" font-weight="bold" letter-spacing="0.5">STRATIFIED 4-FOLD</text>
  <text x="602" y="46" text-anchor="middle" font-size="9" fill="#4A7C59" font-style="italic">class ratios preserved in every fold</text>

  <!-- Class legend right -->
  <rect x="433" y="56" width="10" height="10" fill="#7C2530" rx="2"/>
  <text x="447" y="65" font-size="8.5" fill="#5C3D1E">Class A (minority, 25%)</text>
  <rect x="560" y="56" width="10" height="10" fill="#4A7C59" rx="2"/>
  <text x="574" y="65" font-size="8.5" fill="#5C3D1E">Class B (majority, 75%)</text>

  <!-- Row labels (right) -->
  <text x="425" y="110" font-size="9" fill="#6B5D4F" text-anchor="middle" transform="rotate(-90,425,160)">fold</text>

  <!-- helper macro: each stratified fold has 1 A + 3 B in val, 3 A + 9 B in train -->

  <!-- ── Stratified Fold 1 ── -->
  <!-- VAL: 1 A + 3 B (25/75 ratio) -->
  <rect x="443" y="82" width="14" height="26" rx="2" fill="#7C2530"/>
  <rect x="457" y="82" width="42" height="26" rx="2" fill="#4A7C59"/>
  <rect x="440" y="79" width="62" height="32" fill="none" stroke="#4A7C59" stroke-width="1.5" stroke-dasharray="3,2" rx="3"/>
  <text x="471" y="99" text-anchor="middle" font-size="8" fill="#FDFAF4" font-weight="bold">VAL</text>
  <!-- TRAIN: 3 A + 9 B across 3 groups -->
  <rect x="512" y="82" width="14" height="26" rx="1" fill="#7C2530"/>
  <rect x="526" y="82" width="38" height="26" rx="1" fill="#4A7C59"/>
  <rect x="574" y="82" width="14" height="26" rx="1" fill="#7C2530"/>
  <rect x="588" y="82" width="38" height="26" rx="1" fill="#4A7C59"/>
  <rect x="636" y="82" width="14" height="26" rx="1" fill="#7C2530"/>
  <rect x="650" y="82" width="38" height="26" rx="1" fill="#4A7C59"/>
  <text x="598" y="97" text-anchor="middle" font-size="8" fill="#5C3D1E">TRAIN</text>
  <text x="700" y="92" font-size="8.5" fill="#4A7C59" font-weight="bold">VAL: 25% A</text>
  <text x="700" y="103" font-size="7.5" fill="#9B8B77">✓ preserved</text>

  <!-- ── Stratified Fold 2 ── -->
  <rect x="443" y="120" width="14" height="26" rx="2" fill="#7C2530"/>
  <rect x="457" y="120" width="42" height="26" rx="2" fill="#4A7C59"/>
  <rect x="440" y="117" width="62" height="32" fill="none" stroke="#4A7C59" stroke-width="1.5" stroke-dasharray="3,2" rx="3"/>
  <text x="471" y="137" text-anchor="middle" font-size="8" fill="#FDFAF4" font-weight="bold">VAL</text>
  <rect x="512" y="120" width="14" height="26" rx="1" fill="#7C2530"/>
  <rect x="526" y="120" width="38" height="26" rx="1" fill="#4A7C59"/>
  <rect x="574" y="120" width="14" height="26" rx="1" fill="#7C2530"/>
  <rect x="588" y="120" width="38" height="26" rx="1" fill="#4A7C59"/>
  <rect x="636" y="120" width="14" height="26" rx="1" fill="#7C2530"/>
  <rect x="650" y="120" width="38" height="26" rx="1" fill="#4A7C59"/>
  <text x="598" y="135" text-anchor="middle" font-size="8" fill="#5C3D1E">TRAIN</text>
  <text x="700" y="130" font-size="8.5" fill="#4A7C59" font-weight="bold">VAL: 25% A</text>
  <text x="700" y="141" font-size="7.5" fill="#9B8B77">✓ preserved</text>

  <!-- ── Stratified Fold 3 ── -->
  <rect x="443" y="158" width="14" height="26" rx="2" fill="#7C2530"/>
  <rect x="457" y="158" width="42" height="26" rx="2" fill="#4A7C59"/>
  <rect x="440" y="155" width="62" height="32" fill="none" stroke="#4A7C59" stroke-width="1.5" stroke-dasharray="3,2" rx="3"/>
  <text x="471" y="175" text-anchor="middle" font-size="8" fill="#FDFAF4" font-weight="bold">VAL</text>
  <rect x="512" y="158" width="14" height="26" rx="1" fill="#7C2530"/>
  <rect x="526" y="158" width="38" height="26" rx="1" fill="#4A7C59"/>
  <rect x="574" y="158" width="14" height="26" rx="1" fill="#7C2530"/>
  <rect x="588" y="158" width="38" height="26" rx="1" fill="#4A7C59"/>
  <rect x="636" y="158" width="14" height="26" rx="1" fill="#7C2530"/>
  <rect x="650" y="158" width="38" height="26" rx="1" fill="#4A7C59"/>
  <text x="598" y="173" text-anchor="middle" font-size="8" fill="#5C3D1E">TRAIN</text>
  <text x="700" y="168" font-size="8.5" fill="#4A7C59" font-weight="bold">VAL: 25% A</text>
  <text x="700" y="179" font-size="7.5" fill="#9B8B77">✓ preserved</text>

  <!-- ── Stratified Fold 4 ── -->
  <rect x="443" y="196" width="14" height="26" rx="2" fill="#7C2530"/>
  <rect x="457" y="196" width="42" height="26" rx="2" fill="#4A7C59"/>
  <rect x="440" y="193" width="62" height="32" fill="none" stroke="#4A7C59" stroke-width="1.5" stroke-dasharray="3,2" rx="3"/>
  <text x="471" y="213" text-anchor="middle" font-size="8" fill="#FDFAF4" font-weight="bold">VAL</text>
  <rect x="512" y="196" width="14" height="26" rx="1" fill="#7C2530"/>
  <rect x="526" y="196" width="38" height="26" rx="1" fill="#4A7C59"/>
  <rect x="574" y="196" width="14" height="26" rx="1" fill="#7C2530"/>
  <rect x="588" y="196" width="38" height="26" rx="1" fill="#4A7C59"/>
  <rect x="636" y="196" width="14" height="26" rx="1" fill="#7C2530"/>
  <rect x="650" y="196" width="38" height="26" rx="1" fill="#4A7C59"/>
  <text x="598" y="211" text-anchor="middle" font-size="8" fill="#5C3D1E">TRAIN</text>
  <text x="700" y="206" font-size="8.5" fill="#4A7C59" font-weight="bold">VAL: 25% A</text>
  <text x="700" y="217" font-size="7.5" fill="#9B8B77">✓ preserved</text>

  <!-- Row labels -->
  <text x="427" y="99"  font-size="8" fill="#6B5D4F">F1</text>
  <text x="427" y="137" font-size="8" fill="#6B5D4F">F2</text>
  <text x="427" y="175" font-size="8" fill="#6B5D4F">F3</text>
  <text x="427" y="213" font-size="8" fill="#6B5D4F">F4</text>

  <!-- Annotation arrow (right) -->
  <line x1="471" y1="79" x2="471" y2="68" stroke="#4A7C59" stroke-width="1.2" marker-end="url(#arr)"/>
  <text x="471" y="66" text-anchor="middle" font-size="8" fill="#4A7C59">held-out val fold</text>

  <!-- Success box -->
  <rect x="433" y="248" width="355" height="40" fill="#EFF6F1" stroke="#4A7C59" stroke-width="1" rx="3"/>
  <text x="441" y="263" font-size="8.5" fill="#4A7C59" font-weight="bold">Solution:</text>
  <text x="441" y="276" font-size="8" fill="#5C3D1E">Every fold mirrors the original class balance — each val score measures</text>
  <text x="441" y="287" font-size="8" fill="#5C3D1E">the same problem, so averaging them is meaningful and fair.</text>

  <!-- Dataset bar (right) -->
  <text x="602" y="310" text-anchor="middle" font-size="8.5" fill="#5C3D1E">Full dataset class ratio</text>
  <rect x="443" y="315" width="80" height="14" fill="#7C2530" rx="2"/>
  <rect x="523" y="315" width="240" height="14" fill="#4A7C59" rx="2"/>
  <text x="483" y="325" text-anchor="middle" font-size="8" fill="#FDFAF4">25% A</text>
  <text x="643" y="325" text-anchor="middle" font-size="8" fill="#FDFAF4">75% B</text>

  <!-- Divider line -->
  <line x1="400" y1="20" x2="400" y2="380" stroke="#D4C5A9" stroke-width="1.5" stroke-dasharray="5,3"/>

  <!-- Bottom caption -->
  <text x="400" y="360" text-anchor="middle" font-size="9" fill="#6B5D4F" font-style="italic">
    Stratification sorts examples by class label, then interleaves them into folds — guaranteeing each fold is a miniature copy of the full dataset.
  </text>
  <text x="400" y="375" text-anchor="middle" font-size="8.5" fill="#5C3D1E" font-weight="bold">
    Especially critical when any class represents fewer than 10–20% of the data.
  </text>
</svg>
