<?xml version="1.0" encoding="UTF-8"?>
<svg xmlns="http://www.w3.org/2000/svg" viewBox="0 0 600 310" style="font-family:Georgia,serif;">
  <defs>
    <marker id="tl-arr" markerWidth="8" markerHeight="6" refX="7" refY="3" orient="auto">
      <polygon points="0 0, 8 3, 0 6" fill="#5C3D1E"/>
    </marker>
    <marker id="tl-arr-red" markerWidth="8" markerHeight="6" refX="7" refY="3" orient="auto">
      <polygon points="0 0, 8 3, 0 6" fill="#7C2530"/>
    </marker>
  </defs>

  <!-- Background -->
  <rect x="1" y="1" width="598" height="308" fill="#FDFAF4" stroke="#D4C5A9" stroke-width="1.5" rx="5"/>

  <!-- Panel divider -->
  <line x1="292" y1="26" x2="292" y2="293" stroke="#D4C5A9" stroke-width="1" stroke-dasharray="3,3"/>

  <!-- ══ LEFT PANEL: PRE-TRAINING ══ -->
  <text x="145" y="18" text-anchor="middle" font-size="10" fill="#6B5D4F" letter-spacing="1">PRE-TRAINING</text>

  <!-- Dataset label -->
  <text x="145" y="36" text-anchor="middle" font-size="9" fill="#5C3D1E">Large dataset (ImageNet)</text>

  <!-- Neural network: input layer (left), hidden1, hidden2, output -->
  <!-- Input layer: 5 nodes at x=42 -->
  <rect x="28" y="50" width="22" height="178" fill="#DCCFA8" stroke="#C4A87A" stroke-width="1.2" rx="3"/>
  <text x="39" y="145" text-anchor="middle" font-size="8" fill="#5C3D1E" transform="rotate(-90,39,145)">input</text>
  <!-- Input nodes -->
  <circle cx="39" cy="70"  r="5" fill="#C4A87A" stroke="#8A7038" stroke-width="1"/>
  <circle cx="39" cy="92"  r="5" fill="#C4A87A" stroke="#8A7038" stroke-width="1"/>
  <circle cx="39" cy="114" r="5" fill="#C4A87A" stroke="#8A7038" stroke-width="1"/>
  <circle cx="39" cy="136" r="5" fill="#C4A87A" stroke="#8A7038" stroke-width="1"/>
  <circle cx="39" cy="158" r="5" fill="#C4A87A" stroke="#8A7038" stroke-width="1"/>
  <circle cx="39" cy="180" r="5" fill="#C4A87A" stroke="#8A7038" stroke-width="1"/>
  <circle cx="39" cy="202" r="5" fill="#C4A87A" stroke="#8A7038" stroke-width="1"/>

  <!-- Connection lines (input to hidden1) -->
  <line x1="50" y1="70"  x2="80" y2="78"  stroke="#D4C5A9" stroke-width="0.7" opacity="0.7"/>
  <line x1="50" y1="92"  x2="80" y2="78"  stroke="#D4C5A9" stroke-width="0.7" opacity="0.7"/>
  <line x1="50" y1="114" x2="80" y2="100" stroke="#D4C5A9" stroke-width="0.7" opacity="0.7"/>
  <line x1="50" y1="136" x2="80" y2="122" stroke="#D4C5A9" stroke-width="0.7" opacity="0.7"/>
  <line x1="50" y1="158" x2="80" y2="144" stroke="#D4C5A9" stroke-width="0.7" opacity="0.7"/>
  <line x1="50" y1="180" x2="80" y2="166" stroke="#D4C5A9" stroke-width="0.7" opacity="0.7"/>
  <line x1="50" y1="202" x2="80" y2="188" stroke="#D4C5A9" stroke-width="0.7" opacity="0.7"/>
  <line x1="50" y1="136" x2="80" y2="166" stroke="#D4C5A9" stroke-width="0.7" opacity="0.5"/>
  <line x1="50" y1="92"  x2="80" y2="122" stroke="#D4C5A9" stroke-width="0.7" opacity="0.5"/>

  <!-- Hidden layer 1: x=80, nodes -->
  <rect x="74" y="60" width="22" height="150" fill="#E9DEC5" stroke="#C4A87A" stroke-width="1.2" rx="3"/>
  <circle cx="85" cy="78"  r="5" fill="#DCCFA8" stroke="#A89058" stroke-width="1"/>
  <circle cx="85" cy="100" r="5" fill="#DCCFA8" stroke="#A89058" stroke-width="1"/>
  <circle cx="85" cy="122" r="5" fill="#DCCFA8" stroke="#A89058" stroke-width="1"/>
  <circle cx="85" cy="144" r="5" fill="#DCCFA8" stroke="#A89058" stroke-width="1"/>
  <circle cx="85" cy="166" r="5" fill="#DCCFA8" stroke="#A89058" stroke-width="1"/>
  <circle cx="85" cy="188" r="5" fill="#DCCFA8" stroke="#A89058" stroke-width="1"/>
  <text x="85" y="218" text-anchor="middle" font-size="7" fill="#6B5D4F">hidden 1</text>

  <!-- Connection lines (hidden1 to hidden2) -->
  <line x1="96" y1="78"  x2="126" y2="90"  stroke="#D4C5A9" stroke-width="0.7" opacity="0.7"/>
  <line x1="96" y1="100" x2="126" y2="90"  stroke="#D4C5A9" stroke-width="0.7" opacity="0.7"/>
  <line x1="96" y1="122" x2="126" y2="112" stroke="#D4C5A9" stroke-width="0.7" opacity="0.7"/>
  <line x1="96" y1="144" x2="126" y2="134" stroke="#D4C5A9" stroke-width="0.7" opacity="0.7"/>
  <line x1="96" y1="166" x2="126" y2="156" stroke="#D4C5A9" stroke-width="0.7" opacity="0.7"/>
  <line x1="96" y1="188" x2="126" y2="178" stroke="#D4C5A9" stroke-width="0.7" opacity="0.7"/>
  <line x1="96" y1="122" x2="126" y2="156" stroke="#D4C5A9" stroke-width="0.7" opacity="0.5"/>
  <line x1="96" y1="144" x2="126" y2="112" stroke="#D4C5A9" stroke-width="0.7" opacity="0.5"/>

  <!-- Hidden layer 2: x=120 -->
  <rect x="120" y="70" width="22" height="130" fill="#E9DEC5" stroke="#C4A87A" stroke-width="1.2" rx="3"/>
  <circle cx="131" cy="90"  r="5" fill="#DCCFA8" stroke="#A89058" stroke-width="1"/>
  <circle cx="131" cy="112" r="5" fill="#DCCFA8" stroke="#A89058" stroke-width="1"/>
  <circle cx="131" cy="134" r="5" fill="#DCCFA8" stroke="#A89058" stroke-width="1"/>
  <circle cx="131" cy="156" r="5" fill="#DCCFA8" stroke="#A89058" stroke-width="1"/>
  <circle cx="131" cy="178" r="5" fill="#DCCFA8" stroke="#A89058" stroke-width="1"/>
  <text x="131" y="212" text-anchor="middle" font-size="7" fill="#6B5D4F">hidden 2</text>

  <!-- Connection lines (hidden2 to output) -->
  <line x1="142" y1="90"  x2="172" y2="112" stroke="#D4C5A9" stroke-width="0.7" opacity="0.7"/>
  <line x1="142" y1="112" x2="172" y2="112" stroke="#D4C5A9" stroke-width="0.7" opacity="0.7"/>
  <line x1="142" y1="134" x2="172" y2="134" stroke="#D4C5A9" stroke-width="0.7" opacity="0.7"/>
  <line x1="142" y1="156" x2="172" y2="134" stroke="#D4C5A9" stroke-width="0.7" opacity="0.7"/>
  <line x1="142" y1="178" x2="172" y2="156" stroke="#D4C5A9" stroke-width="0.7" opacity="0.7"/>
  <line x1="142" y1="112" x2="172" y2="156" stroke="#D4C5A9" stroke-width="0.7" opacity="0.5"/>

  <!-- Output layer: x=172 -->
  <rect x="166" y="94" width="22" height="78" fill="#F2EAD8" stroke="#C4A87A" stroke-width="1.2" rx="3"/>
  <circle cx="177" cy="112" r="5" fill="#DCCFA8" stroke="#A89058" stroke-width="1"/>
  <circle cx="177" cy="134" r="5" fill="#DCCFA8" stroke="#A89058" stroke-width="1"/>
  <circle cx="177" cy="156" r="5" fill="#DCCFA8" stroke="#A89058" stroke-width="1"/>
  <text x="177" y="183" text-anchor="middle" font-size="7" fill="#6B5D4F">output</text>
  <text x="177" y="194" text-anchor="middle" font-size="7" fill="#6B5D4F">1000 cls</text>

  <!-- Arrow and label: learns general features -->
  <line x1="200" y1="134" x2="255" y2="134" stroke="#5C3D1E" stroke-width="1.2" stroke-dasharray="4,2" marker-end="url(#tl-arr)"/>
  <text x="227" y="128" text-anchor="middle" font-size="7.5" fill="#5C3D1E">learns general</text>
  <text x="227" y="140" text-anchor="middle" font-size="7.5" fill="#5C3D1E">features</text>

  <!-- Feature thumbnail boxes below network -->
  <rect x="28"  y="232" width="52" height="22" fill="#E9DEC5" stroke="#C4A87A" stroke-width="1" rx="2"/>
  <text x="54"  y="247" text-anchor="middle" font-size="8" fill="#5C3D1E">edges</text>
  <rect x="93"  y="232" width="52" height="22" fill="#E9DEC5" stroke="#C4A87A" stroke-width="1" rx="2"/>
  <text x="119" y="247" text-anchor="middle" font-size="8" fill="#5C3D1E">textures</text>
  <rect x="158" y="232" width="52" height="22" fill="#E9DEC5" stroke="#C4A87A" stroke-width="1" rx="2"/>
  <text x="184" y="247" text-anchor="middle" font-size="8" fill="#5C3D1E">shapes</text>

  <!-- ══ RIGHT PANEL: FINE-TUNING ══ -->
  <text x="443" y="18" text-anchor="middle" font-size="10" fill="#6B5D4F" letter-spacing="1">FINE-TUNING</text>

  <!-- Dataset label -->
  <text x="443" y="36" text-anchor="middle" font-size="9" fill="#5C3D1E">Small dataset (medical images)</text>

  <!-- Small dataset icon: 4 labeled points -->
  <circle cx="388" cy="50" r="4" fill="#7C2530"/>
  <circle cx="400" cy="56" r="4" fill="#7C2530"/>
  <circle cx="394" cy="44" r="4" fill="#2D5A8E"/>
  <circle cx="406" cy="48" r="4" fill="#2D5A8E"/>
  <text x="420" y="55" font-size="7.5" fill="#6B5D4F">few samples</text>

  <!-- Frozen layers: input and hidden1 (grey) -->
  <!-- Input layer frozen -->
  <rect x="318" y="70" width="22" height="150" fill="#CCCCCC" stroke="#AAAAAA" stroke-width="1.2" rx="3"/>
  <circle cx="329" cy="85"  r="5" fill="#BBBBBB" stroke="#888" stroke-width="1"/>
  <circle cx="329" cy="107" r="5" fill="#BBBBBB" stroke="#888" stroke-width="1"/>
  <circle cx="329" cy="129" r="5" fill="#BBBBBB" stroke="#888" stroke-width="1"/>
  <circle cx="329" cy="151" r="5" fill="#BBBBBB" stroke="#888" stroke-width="1"/>
  <circle cx="329" cy="173" r="5" fill="#BBBBBB" stroke="#888" stroke-width="1"/>
  <circle cx="329" cy="195" r="5" fill="#BBBBBB" stroke="#888" stroke-width="1"/>

  <!-- Frozen hidden1 -->
  <line x1="340" y1="85"  x2="370" y2="95"  stroke="#CCCCCC" stroke-width="0.7"/>
  <line x1="340" y1="107" x2="370" y2="95"  stroke="#CCCCCC" stroke-width="0.7"/>
  <line x1="340" y1="129" x2="370" y2="118" stroke="#CCCCCC" stroke-width="0.7"/>
  <line x1="340" y1="151" x2="370" y2="140" stroke="#CCCCCC" stroke-width="0.7"/>
  <line x1="340" y1="173" x2="370" y2="162" stroke="#CCCCCC" stroke-width="0.7"/>
  <line x1="340" y1="195" x2="370" y2="185" stroke="#CCCCCC" stroke-width="0.7"/>
  <rect x="364" y="78" width="22" height="118" fill="#CCCCCC" stroke="#AAAAAA" stroke-width="1.2" rx="3"/>
  <circle cx="375" cy="95"  r="5" fill="#BBBBBB" stroke="#888" stroke-width="1"/>
  <circle cx="375" cy="118" r="5" fill="#BBBBBB" stroke="#888" stroke-width="1"/>
  <circle cx="375" cy="140" r="5" fill="#BBBBBB" stroke="#888" stroke-width="1"/>
  <circle cx="375" cy="162" r="5" fill="#BBBBBB" stroke="#888" stroke-width="1"/>
  <circle cx="375" cy="185" r="5" fill="#BBBBBB" stroke="#888" stroke-width="1"/>

  <!-- Frozen label + lock icon -->
  <text x="344" y="230" text-anchor="middle" font-size="8" fill="#888888">frozen</text>
  <!-- Lock icon: small rectangle with circle arc -->
  <rect x="336" y="216" width="10" height="8" fill="none" stroke="#888" stroke-width="1.2" rx="1"/>
  <path d="M338,216 Q338,211 341,211 Q344,211 344,216" fill="none" stroke="#888" stroke-width="1.2"/>

  <!-- Active (fine-tuned) layers: hidden2 and output in warm red -->
  <line x1="386" y1="95"  x2="416" y2="106" stroke="#D4C5A9" stroke-width="0.7"/>
  <line x1="386" y1="118" x2="416" y2="106" stroke="#D4C5A9" stroke-width="0.7"/>
  <line x1="386" y1="140" x2="416" y2="128" stroke="#D4C5A9" stroke-width="0.7"/>
  <line x1="386" y1="162" x2="416" y2="150" stroke="#D4C5A9" stroke-width="0.7"/>
  <line x1="386" y1="185" x2="416" y2="172" stroke="#D4C5A9" stroke-width="0.7"/>
  <rect x="410" y="88" width="22" height="100" fill="#F2EAD8" stroke="#7C2530" stroke-width="1.5" rx="3"/>
  <circle cx="421" cy="106" r="5" fill="#E9A0A8" stroke="#7C2530" stroke-width="1"/>
  <circle cx="421" cy="128" r="5" fill="#E9A0A8" stroke="#7C2530" stroke-width="1"/>
  <circle cx="421" cy="150" r="5" fill="#E9A0A8" stroke="#7C2530" stroke-width="1"/>
  <circle cx="421" cy="172" r="5" fill="#E9A0A8" stroke="#7C2530" stroke-width="1"/>
  <text x="421" y="200" text-anchor="middle" font-size="7" fill="#7C2530">active</text>

  <!-- Output layer active -->
  <line x1="432" y1="106" x2="460" y2="120" stroke="#D4C5A9" stroke-width="0.7"/>
  <line x1="432" y1="128" x2="460" y2="140" stroke="#D4C5A9" stroke-width="0.7"/>
  <line x1="432" y1="150" x2="460" y2="140" stroke="#D4C5A9" stroke-width="0.7"/>
  <line x1="432" y1="172" x2="460" y2="160" stroke="#D4C5A9" stroke-width="0.7"/>
  <rect x="454" y="108" width="22" height="60" fill="#F2EAD8" stroke="#7C2530" stroke-width="1.5" rx="3"/>
  <circle cx="465" cy="120" r="5" fill="#E9A0A8" stroke="#7C2530" stroke-width="1"/>
  <circle cx="465" cy="140" r="5" fill="#E9A0A8" stroke="#7C2530" stroke-width="1"/>
  <circle cx="465" cy="160" r="5" fill="#E9A0A8" stroke="#7C2530" stroke-width="1"/>

  <!-- Output class change annotation -->
  <text x="480" y="120" font-size="8" fill="#888" text-decoration="line-through">1000 cls</text>
  <text x="480" y="135" font-size="8" fill="#7C2530">2 classes</text>
  <text x="480" y="147" font-size="7.5" fill="#7C2530">(disease/</text>
  <text x="480" y="158" font-size="7.5" fill="#7C2530">healthy)</text>

  <!-- Fine-tune label -->
  <text x="443" y="248" text-anchor="middle" font-size="8.5" fill="#5C3D1E">fine-tune only top layers</text>
  <text x="443" y="262" text-anchor="middle" font-size="8" fill="#6B5D4F">frozen layers: reused weights</text>
</svg>
